<?xml version="1.0" encoding="utf-8"?>
<!-- Generator: Adobe Illustrator 26.0.1, SVG Export Plug-In . SVG Version: 6.00 Build 0)  -->
<svg version="1.1" id="Layer_1" xmlns="http://www.w3.org/2000/svg" xmlns:xlink="http://www.w3.org/1999/xlink" x="0px" y="0px"
	 viewBox="0 0 512 512" style="enable-background:new 0 0 512 512;" xml:space="preserve">
<style type="text/css">
	.st0{fill:#BB7814;}
</style>
<g>
	<path class="st0" d="M93.5,32.4c3.5,0,7,0,10.5,0c0.4,0.2,0.8,0.5,1.2,0.6c18.8,4.3,30.8,17.1,32.7,34.9
		c1.8,16.6-7.2,31.7-23.7,39.9c-0.7,0.4-1.7,0.7-2.1,1.4c-1.3,2.2,0.2,10.7,2.1,12.6c7,7,13.9,14.1,21,20.9c2.2,2.1,3.1,4.3,2.9,7.3
		c-0.2,4.7-0.1,9.5-0.1,14.1c26.6,0,52.4,0,78.3,0c0.7-4.5,0.4-8.2-3.5-11.4c-3.7-3-6.5-7.2-10.3-10c-10.2-7.5-14.3-17.2-12.1-29.6
		c0.6-3.3-1-4.7-3.8-6.1c-27.4-13.2-30.3-50.8-5-67.6c4.9-3.3,11.1-4.7,16.7-7c3.5,0,7,0,10.5,0c0.4,0.2,0.8,0.5,1.2,0.6
		c18.7,4.3,30.6,16.7,32.7,34.5c2.1,18.2-8.9,34.4-23.8,40.4c-0.8,0.3-1.7,0.8-2,1.4c-1.3,2.4,0.2,10.6,2.2,12.6
		c7.1,7.1,14.3,14.1,21.2,21.4c1.4,1.5,2.3,3.9,2.5,6c0.4,4.9,0.1,9.8,0.1,14.7c9,0,17.5,0,26.2,0c0-5.1-0.2-9.9,0.1-14.7
		c0.2-2.1,1.1-4.5,2.5-6c7.1-7.5,14.5-14.7,21.8-22c3.3-3.3,1.4-7.5,1.5-11.2c0-1-2.4-2.4-4-3.2c-26.4-13.1-29.9-49.2-6.1-66.5
		c5.2-3.8,12-5.4,18.1-8c3.5,0,7,0,10.5,0c2.6,0.8,5.3,1.4,7.9,2.3c15,5.4,25.4,19.3,26.1,34.9c0.7,16.1-8.1,30.9-22.7,37.6
		c-2.7,1.2-3.7,2.5-3.5,5.4c0.3,4.5-0.1,9,0.1,13.5c0.2,3-0.7,5.1-2.9,7.2c-6.6,6.3-12.8,13.1-19.6,19.3c-3.6,3.3-4.4,6.8-3.4,11.4
		c26,0,51.9,0,78.3,0c0-5-0.3-9.8,0.1-14.5c0.2-2.2,1.1-4.8,2.6-6.4c7-7.4,14.2-14.6,21.5-21.6c3.5-3.4,1.7-7.4,1.7-11.1
		c0-1.2-2.4-2.7-4-3.5c-13.3-7-20.9-18-21.8-32.9c-0.9-15.1,5.4-27.3,18.3-35.3c4.7-2.9,10.4-4.2,15.6-6.3c3.5,0,7,0,10.5,0
		c0.8,0.3,1.6,0.6,2.5,0.8c16.3,3.8,26.9,13.8,30.5,30c3.7,16.5-1.2,31.4-15.6,39.9c-9.2,5.4-10.4,11.5-9.5,20.1
		c0.1,1.3,0.3,2.7,0,3.9c-0.6,2-1.1,4.2-2.4,5.6c-6.5,6.8-13.1,13.7-20.1,20c-3.7,3.3-4.2,6.8-3.2,11.6c17.6,0,35.1,0,52.9,0
		c0,79,0,157.6,0,236.6c8.8,0,17.3,0,26.1,0c0,4.8,0,9.2,0,13.5c-0.3,35.9-29.2,65-65.2,65c-105.7,0.1-211.4,0.1-317,0
		c-29.7,0-55.6-20.6-63-49.2c-0.7-2.8-1.3-5.6-2-8.4c0-7,0-14,0-21c8.7,0,17.3,0,26.4,0c0-79.2,0-157.9,0-236.8
		c17.8,0,35.2,0,52.7,0c1-4.7,0.3-8.2-3.3-11.5c-7-6.4-13.6-13.2-20.1-20c-1.3-1.4-2.2-3.7-2.3-5.6c-0.3-6.1-0.1-12.2-0.1-18.2
		c-1.5-0.7-2.7-1.2-3.8-1.8c-27.3-13.3-30.3-50.8-5-67.7C81.7,36.1,87.9,34.7,93.5,32.4z M427,190.8c-114.2,0-228.1,0-341.8,0
		c0,70.2,0,140.1,0,209.9c114.1,0,227.9,0,341.8,0C427,330.7,427,260.9,427,190.8z M450.6,427.4c-129.9,0-259.5,0-389.1,0
		c0,0.5-0.1,0.8,0,1.1c0.3,0.8,0.6,1.6,1,2.4c7.8,15,20.2,22.4,37,22.4c104.4,0,208.7,0,313.1,0c1.3,0,2.6,0,3.9-0.1
		C431.9,452.5,446.8,441.3,450.6,427.4z M111.9,71.8c0.1-7.1-5.8-13.1-12.8-13.2c-7-0.1-13.1,5.7-13.3,12.7
		c-0.2,7.2,5.8,13.4,13,13.5C105.8,84.8,111.8,78.9,111.9,71.8z M216.7,71.6c0-7.1-6-13-13-13c-7.1,0-13.1,5.8-13.1,12.9
		c-0.1,7.2,6,13.4,13.2,13.3C210.8,84.7,216.7,78.7,216.7,71.6z M308,84.8c7,0.2,13.2-5.6,13.4-12.6c0.3-7-5.4-13.2-12.5-13.5
		c-7.2-0.3-13.5,5.6-13.7,12.8C295.2,78.5,301,84.6,308,84.8z M426.3,71.9c0.1-7.1-5.7-13.1-12.8-13.3c-7-0.2-13.2,5.6-13.4,12.7
		c-0.2,7.2,5.8,13.4,13,13.5C420.2,84.8,426.2,78.9,426.3,71.9z"/>
	<path class="st0" d="M181.4,267.3c4.5-7.9,8.8-15.1,13.1-22.6c8.2,4.7,16.1,9.2,23,13.2c8.7-5,16.7-9.7,25.5-14.8
		c0-7.7,0-16.8,0-26.2c8.8,0,17.1,0,25.9,0c0,9.1,0,18.2,0,26.1c8.8,5.1,16.8,9.7,25.7,14.9c6.7-3.9,14.7-8.4,22.9-13.1
		c4.4,7.6,8.6,14.9,13.1,22.6c-6.8,3.9-13.3,7.8-20.1,11.5c-2.9,1.6-3.7,3.1-3.3,6.7c0.7,6.9,0.4,13.9-0.2,20.8
		c-0.2,2.5,0.3,3.6,2.3,4.7c7,3.9,13.8,8,21.2,12.2c-4.3,7.5-8.6,14.9-13.1,22.7c-8.1-4.6-16-9.2-22.9-13.2
		c-8.6,5-16.7,9.7-25.5,14.8c0,8.1,0,17.3,0,26.9c-8.7,0-17.2,0-26.1,0c0-9.4,0-18.8,0-27.8c-4.7-2.1-9.1-3.7-13.1-6
		c-4-2.3-7.6-5.3-11.7-8.3c-7.6,4.3-15.5,8.9-23.7,13.6c-4.4-7.6-8.6-14.9-13.1-22.6c7-4.1,13.8-8.1,20.6-11.9
		c2.4-1.4,3.1-2.6,2.8-5.7c-0.6-7-0.5-14.2,0-21.2c0.2-2.7-0.3-3.9-2.4-5.1C195.5,275.5,188.6,271.5,181.4,267.3z M282.2,295.5
		c0.1-14.4-11.5-26.3-25.9-26.4c-14.4-0.1-26.3,11.4-26.5,25.8c-0.2,14.6,11.6,26.6,26.1,26.6C270.3,321.5,282.1,309.8,282.2,295.5z
		"/>
</g>
</svg>
