<?xml version="1.0" encoding="utf-8"?>
<!-- Generator: Adobe Illustrator 26.0.1, SVG Export Plug-In . SVG Version: 6.00 Build 0)  -->
<svg version="1.1" id="Layer_1" xmlns="http://www.w3.org/2000/svg" xmlns:xlink="http://www.w3.org/1999/xlink" x="0px" y="0px"
	 viewBox="0 0 512 512" style="enable-background:new 0 0 512 512;" xml:space="preserve">
<style type="text/css">
	.st0{fill:#591B12;}
</style>
<g>
	<path class="st0" d="M266.6,417.9c0,4.4,0,9.5,0,14.5c-0.2,22.8-15.9,38.7-38.7,38.8c-17.7,0.1-35.4,0.3-53.1-0.1
		c-19.5-0.4-34.5-14-36.9-32.9c-2.4-18.5,8.6-35.6,26.5-40.7c4.1-1.2,8.6-1.6,12.9-1.7c27.3-0.2,54.6,0.1,82-0.2
		c78.8-0.9,147.1-59.3,160.6-137.1c15.3-88.4-39.5-171.5-126.7-192.1c-93.2-22-187.6,41.5-202.5,136.2c-4,25.1-2.5,49.9,5.1,74.2
		c3.3,10.7-1.1,16.7-12.2,16.8c-11.9,0.1-23.8,0.1-35.7,0c-20.3-0.1-33.9-13.6-34-34c-0.1-20.5-0.1-41,0-61.5
		c0.1-20.4,13.7-33.6,34.1-33.7c8.9,0,17.9-0.2,26.8,0.1c3.2,0.1,4.5-1.1,5.6-3.9c23-56.8,63.9-94.5,122.4-112.2
		c92.3-28,192.1,20.6,227.7,110.4c1.7,4.4,3.8,6.1,8.6,5.8c8.9-0.5,17.9-0.2,26.8-0.1c17.6,0.3,31.5,13.5,31.8,31.2
		c0.4,22.2,0.4,44.5,0,66.7c-0.3,17.6-14.1,30.7-31.9,31.2c-9.6,0.3-19.3,0.2-28.9,0c-3.1-0.1-4.5,1-5.7,3.9
		c-23.8,58.3-66,96.1-126.6,113.1C292.6,414.1,279.8,415.5,266.6,417.9z M71.2,186.2c-8.3,0-16.9-0.2-25.4,0.1
		c-6.3,0.2-10.3,4.5-10.4,10.9c-0.1,21.4-0.1,42.7,0,64.1c0,5.1,2.6,9.7,7.5,10.1c9.6,0.8,19.4,0.2,28.2,0.2
		C70,257.2,68,243.1,68,229C68,214.9,70,200.9,71.2,186.2z M439.5,186.3c6.2,28.6,6.2,56.9,0,85.5c9.9,0,19.3,0.3,28.7-0.1
		c4.7-0.2,8.2-4.9,8.2-10.1c0.1-21.5,0.2-43.1,0-64.6c0-6-3.8-10.3-9.6-10.6C458.1,186,449.1,186.3,439.5,186.3z M245.2,418.2
		c-1.1-0.3-1.6-0.6-2-0.6c-23.1,0-46.2-0.2-69.3,0.1c-8.7,0.1-14.7,7.3-14.7,16c0,8.7,6.2,15.7,14.9,15.8c18.7,0.3,37.4,0.3,56.1,0
		c8.2-0.1,14.3-6.3,14.9-14.8C245.5,429.3,245.2,423.9,245.2,418.2z"/>
	<path class="st0" d="M153.4,316.4c-3.3-4.6-6.7-8.8-9.7-13.3c-53-78.7-6.6-189,86.6-205.9c73.7-13.4,141.7,32,157.3,105
		c15.6,72.7-33.7,146-107.1,159c-8.7,1.5-17.7,2.2-26.6,2.3c-39.6,0.2-79.1,0.1-118.7,0.1c-0.4,0-0.7,0-1.1,0
		c-5.1,0.2-9.4-1.3-11.6-6.3c-2.3-5.2-0.6-9.4,3.3-13.2c8-7.8,15.9-15.8,23.8-23.8C151,319,152.2,317.8,153.4,316.4z M158.9,340.8
		c0.2,0.5,0.3,0.9,0.5,1.4c1.7,0,3.4,0,5,0c29.1,0,58.1,0,87.2,0c5.8,0,11.6-0.3,17.3-0.9c61.4-6.1,107.7-65,99.2-126.1
		c-9.2-66-68.8-108.9-134.3-96.8c-49,9.1-87.4,52.7-90.5,102.5c-2,33.1,8.4,61.6,31,85.8c6.5,7,6.4,12.7-0.4,19.5
		C169,331.1,163.9,335.9,158.9,340.8z"/>
	<path class="st0" d="M191.5,229c0.1-5.9,5-10.7,10.8-10.6c5.8,0.1,10.6,5.1,10.6,10.9c-0.1,5.8-5,10.7-10.8,10.6
		C196.2,239.8,191.5,234.9,191.5,229z"/>
	<path class="st0" d="M320.4,229.1c0,5.9-4.8,10.8-10.6,10.8c-5.8,0-10.7-4.9-10.7-10.7c0-5.8,4.9-10.8,10.7-10.8
		C315.6,218.3,320.4,223.2,320.4,229.1z"/>
	<path class="st0" d="M266.6,228.9c0.1,5.9-4.6,10.8-10.4,10.9c-5.8,0.1-10.7-4.7-10.8-10.6c-0.1-5.9,4.6-10.8,10.4-10.9
		C261.6,218.2,266.5,223.1,266.6,228.9z"/>
</g>
</svg>
