<?xml version="1.0" encoding="utf-8"?>
<!-- Generator: Adobe Illustrator 26.0.1, SVG Export Plug-In . SVG Version: 6.00 Build 0)  -->
<svg version="1.1" id="Layer_1" xmlns="http://www.w3.org/2000/svg" xmlns:xlink="http://www.w3.org/1999/xlink" x="0px" y="0px"
	 viewBox="0 0 512 512" style="enable-background:new 0 0 512 512;" xml:space="preserve">
<style type="text/css">
	.st0{fill:#14AF4B;}
</style>
<g>
	<path class="st0" d="M488.2,234.2c-13.3,23-26.7,45.9-40,68.9c-2.5,4.3-4.9,8.7-7.5,12.9c-2.6,4.2-5.5,5-10,2.6
		c-4-2.1-7.9-4.5-11.9-6.8c-0.7,0.7-1.4,1.3-2,1.9c-15.2,17.8-38,23.8-59.9,15.7c-2.4-0.9-4-0.7-6.1,0.8
		c-12.7,9.4-26.2,10.4-39.9,2.7c-16.3-9.1-32.5-18.7-48.7-28c-1.3-0.7-2.6-1.4-4.2-2.3c-4.8,8.1-9.4,16.1-14.1,24
		c-13.7,23.3-33.8,37.1-60.6,40.3c-8.7,1-17.5,0.5-26.3,0.6c-12.8,0.1-25.6,0-39,0c0,9.5,0,18.7,0,27.9c0,8.1-1.7,9.7-9.9,9.7
		c-10.1,0-20.2,0-30.9,0c0,6,0,11.7,0,17.4c0,19.4-11.6,30.9-31.1,30.9c-4.5,0-9.1,0-13.6,0c-6.8,0-8.8-2-8.8-9
		c0-62.6,0-125.1,0-187.7c0-7.9,0-15.7,0-23.6c0-5.2,2.2-7.6,7.4-7.7c6.6-0.1,13.3-0.3,19.9,0.2c15.1,1.1,25.9,12.8,26.2,27.8
		c0,2.6,0,5.1,0,8.3c5.7,0,11.1,0,16.5,0c5.1,0,10.3,0,15.4,0c7,0,8.9,1.9,8.9,8.8c0,11.6,0,23.3,0,34.9c0,1.7,0,3.3,0,5.7
		c1.6,0,3,0,4.4,0c16.8,0,33.6-0.1,50.3,0c10,0.1,17.4-4.1,22.3-12.7c4.6-8,9.3-15.9,14.1-24.1c-3-1.8-5.6-3.4-8.3-5
		c-29-16.8-58.1-33.5-87.1-50.3c-19.1-11.1-24.7-31.4-13.7-50.6c17.4-30.2,34.8-60.4,52.3-90.6c11.5-19.8,31.6-25.2,51.6-13.7
		c71.9,41.5,143.8,83,215.7,124.5c20.7,11.9,41.3,23.8,61.9,35.8c2.3,1.3,4.2,3.2,6.3,4.9C488.2,231.2,488.2,232.7,488.2,234.2z
		 M135.3,133.4c99.1,57.2,198,114.3,297.1,171.6c13.7-23.7,27.1-47,40.7-70.5c-1.8-1.1-3-1.9-4.3-2.6
		C397,190.4,325.3,149,253.5,107.5c-18.8-10.9-37.6-21.8-56.5-32.6c-11.5-6.6-24.7-4.4-31.2,6.1C155.3,98.2,145.6,115.7,135.3,133.4
		z M367.2,282c-79.7-46-158.8-91.7-237.8-137.3c-0.6,0.5-0.9,0.6-1,0.9c-5.4,9.3-10.7,18.5-16.1,27.8c-8.9,15.4-5.7,27.1,9.8,36
		c39.1,22.5,78.2,45.1,117.2,67.7c25.7,14.9,51.5,29.8,77.2,44.6c11.3,6.5,24.3,4.3,30.9-6C354.3,304.8,360.4,293.5,367.2,282z
		 M36.8,238.3c0,67.7,0,134.9,0,202.5c3.4,0,6.5,0,9.7,0c12.2,0,18.2-5.9,18.2-18c0-40.8,0-81.6,0-122.4c0-15.4,0.1-30.8,0-46.2
		c-0.1-8.9-5.8-15.1-14.8-15.8C45.6,238.1,41.4,238.3,36.8,238.3z M118.4,354.9c19.6,0,38.7,0.3,57.9-0.1
		c20.5-0.4,37.7-8.7,50.1-24.9c7.9-10.4,14-22.1,21.1-33.5c-9.3-5.3-18-10.4-27-15.5c-5,8.6-9.8,16.8-14.6,24.9
		c-7.3,12.1-17.9,18.3-32.2,18.3c-16.8,0-33.5,0-50.3,0c-1.6,0-3.2,0-5,0C118.4,334.5,118.4,344.4,118.4,354.9z M105.3,275
		c-9.5,0-18.6,0-27.7,0c0,39.3,0,78.2,0,117.1c9.4,0,18.5,0,27.7,0C105.3,353,105.3,314.2,105.3,275z M361.4,317.3
		c17.2,8,39.2-1.2,45.6-12.4c-9-5.2-18-10.4-27-15.6c-0.5-0.3-1.1-0.5-1.7-0.8c-0.4,0.6-0.9,1-1.1,1.5
		C371.9,299.1,366.7,308.1,361.4,317.3z"/>
	<path class="st0" d="M417.9,225c13.5,0.2,24.3,11.2,24.1,24.8c-0.2,13.2-11.3,24-24.5,24c-13.4-0.1-24.5-11.3-24.3-24.7
		C393.2,235.6,404.3,224.8,417.9,225z M429.2,249.3c0-6.5-5.3-11.7-12-11.6c-6.4,0.1-11.5,5.3-11.5,11.6c0,6.3,5.3,11.6,11.6,11.7
		C423.8,261.2,429.2,255.8,429.2,249.3z"/>
	<path class="st0" d="M132.8,174.5c2.5,1.1,3.9,1.6,5.2,2.3c16.3,9.4,32.7,18.8,49,28.3c4.6,2.7,5.9,6,3.9,9.6
		c-2.1,3.6-5.5,4.1-10.2,1.4c-16.3-9.4-32.7-18.8-49-28.3c-3-1.7-5.4-4.1-4-7.6C128.6,177.9,131.1,176.3,132.8,174.5z"/>
</g>
</svg>
