<?xml version="1.0" encoding="utf-8"?>
<!-- Generator: Adobe Illustrator 26.0.1, SVG Export Plug-In . SVG Version: 6.00 Build 0)  -->
<svg version="1.1" id="Layer_1" xmlns="http://www.w3.org/2000/svg" xmlns:xlink="http://www.w3.org/1999/xlink" x="0px" y="0px"
	 viewBox="0 0 512 512" style="enable-background:new 0 0 512 512;" xml:space="preserve">
<style type="text/css">
	.st0{fill:#86328C;}
</style>
<g>
	<path class="st0" d="M253.8,305.2c58.4,0,115.7,0,173.5,0c14.4-49,28.8-97.9,43.6-148.3c-4.4,0-7.6,0-10.9,0
		c-72.2,0-144.3,0-216.5,0c-12.1,0-17.4-3.2-17.1-10.4c0.3-6.9,5.1-9.7,16.9-9.7c78.1,0,156.2,0,234.3,0c15.6,0,18.6,4.2,14.2,19.4
		c-15.3,52-30.6,103.9-45.9,155.9c-3.5,12-5.4,13.5-17.9,13.5c-81.2,0-162.5,0-243.7,0c-2.8,0-6.4-1-8.4,0.4
		c-3.5,2.4-8.5,6.2-8.5,9.4c0,3.2,5,7,8.6,9.3c2,1.3,5.5,0.3,8.4,0.3c93.5,0,186.9,0,280.4,0c2.3,0,4.5,0,6.8,0
		c6.7,0.1,12.1,2.2,12.1,10c0,7.7-5.2,10.1-12,10.1c-13.6,0-27.2,0-41.8,0c8.4,22.1,5.2,40.8-15.1,53.8c-13.5,8.7-31.2,7.5-43.9-2.6
		c-17-13.6-19.1-31.1-11.2-50.9c-23,0-45.4,0-68.6,0c8.7,21.7,5.1,40.3-15,53.4c-13.5,8.8-31,7.4-44-2.3
		c-14.9-11.2-18.5-26.4-11.6-51.4c-14.9,0-29.6,0.3-44.2-0.1c-13.7-0.3-25.1-9.3-28.4-21.7c-3.4-12.9,1.6-26.8,13.2-33.1
		c5.2-2.8,11.8-4.3,17.8-4.5c17.6-0.6,35.2-0.2,54-0.2c-4.2-15.5-8.1-30.4-12.2-45.3c-13.1-48.2-26.4-96.3-39.2-144.5
		c-1.8-6.9-4.9-8.7-11.7-8.5c-18.7,0.5-37.5,0.2-56.2,0.2c-2.5,0-5.9,0.8-7.5-0.5c-3.4-2.7-7.5-6.2-8.3-10c-1-5.2,3.3-9.2,8.8-9.3
		c26.7-0.2,53.4-0.3,80.1,0c7,0.1,8.9,5.7,10.5,11.5c16.3,60.2,32.8,120.4,49.2,180.6C249,288,251.4,296.4,253.8,305.2z
		 M256.4,365.1c-10.8-0.2-19.6,8.2-20,19c-0.4,11.2,8.2,20.2,19.4,20.4c10.9,0.1,19.6-8.1,19.9-18.9
		C276.1,374.3,267.5,365.3,256.4,365.1z M395.1,404.4c10.7-0.1,19.6-8.8,19.7-19.4c0.1-10.9-9-20-20-20c-10.6,0-19.5,8.8-19.7,19.4
		C374.9,395.5,384,404.5,395.1,404.4z"/>
	<path class="st0" d="M78.1,146.9c15.3,0,30.7,0,46,0c8.4,0,13.4,3.8,12.9,10c-0.7,7.5-5.8,9.7-12.6,9.7c-31.2,0-62.5,0-93.7,0
		c-6.7,0-11.9-2.1-12.4-9.8c-0.4-6.4,4.3-9.9,12.9-9.9C46.9,146.9,62.5,146.9,78.1,146.9z"/>
	<path class="st0" d="M112.6,196.4c13.9,0,27.8,0.1,41.7,0c6.8,0,12.1,2.2,12.2,9.8c0.2,7.7-5.3,10.2-11.9,10.2
		c-28.1,0.1-56.2,0.1-84.3,0c-6.7,0-11.8-2.5-12.4-10c-0.5-6.2,4.6-10,13-10C84.8,196.3,98.7,196.4,112.6,196.4z"/>
	<path class="st0" d="M147.5,245.9c12.2,0,24.4,0.1,36.6,0c6.9,0,12.2,2.4,12.3,9.8c0.2,7.4-5.1,10.3-11.9,10.3
		c-24.9,0-49.9,0.1-74.8,0c-6.8,0-12-2.7-11.8-10.3c0.2-7.5,5.5-9.8,12.3-9.8C122.5,245.9,135,245.9,147.5,245.9z"/>
</g>
</svg>
