<?xml version="1.0" encoding="utf-8"?>
<!-- Generator: Adobe Illustrator 26.0.1, SVG Export Plug-In . SVG Version: 6.00 Build 0)  -->
<svg version="1.1" id="Layer_1" xmlns="http://www.w3.org/2000/svg" xmlns:xlink="http://www.w3.org/1999/xlink" x="0px" y="0px"
	 viewBox="0 0 512 512" style="enable-background:new 0 0 512 512;" xml:space="preserve">
<style type="text/css">
	.st0{fill:#FF540D;}
</style>
<g>
	<path class="st0" d="M29.4,198.4c1.5-3.5,2.5-7.3,4.6-10.5c5.7-8.9,14.1-12.8,24.7-12.8c37.3,0.1,74.6,0,112,0
		c27.6,0,55.2,0,82.7,0c1.5,0,3-0.1,4.4,0.1c3.6,0.4,5.6,2.7,5.8,6.2c0.2,3.3-1.5,5.7-4.8,6.5c-1.8,0.4-3.8,0.5-5.7,0.5
		c-64,0-128,0.2-192-0.1c-16.6-0.1-19.4,10.3-18.2,22.5c0.1,1.2,1.8,2.5,3,3.4c17.3,12.9,34.6,25.7,51.8,38.5
		c0.9,0.7,1.9,1.4,2.8,2.2c2.9,2.6,3.3,6.3,1.1,9.1c-2.2,2.8-5.9,3.5-9.1,1.4c-3.4-2.3-6.7-4.9-10-7.3c-13-9.6-26-19.3-39.5-29.3
		c0,59.1,0,117.5,0,176.9c36.4-32.2,72.4-64.1,108.7-96.2c-11.4-8.4-22.5-16.7-33.6-25c-0.6-0.4-1.2-0.8-1.8-1.3
		c-3.9-3.1-4.7-6.6-2.3-9.9c2.3-3.2,6.3-3.6,10.2-0.8c5.4,3.9,10.7,7.9,16,11.8c18.6,13.8,37.2,27.6,55.8,41.4
		c22.2,16.5,45,16.1,66.4-1.1c16.5-13.2,32.8-26.5,49.2-39.7c0.8-0.6,1.6-1.3,2.4-1.9c3.9-3,7.6-2.9,10.2,0.2c2.7,3.3,2,7-2.1,10.3
		c-6.4,5.2-12.8,10.4-19.3,15.6c-1.1,0.9-2.2,1.9-3.7,3.1c33.5,30.9,66.8,61.7,101.1,93.3c0-2.5,0-4,0-5.4c0-33,0-66.1,0-99.1
		c0-1.3-0.1-2.7,0.1-4c0.4-3.7,3.4-6.5,6.8-6.2c3.7,0.3,5.9,2.4,6.4,6.2c0.1,1.2,0.1,2.4,0.1,3.5c0,39.2,0,78.5,0,117.7
		c0,19-11.5,30.5-30.6,30.5c-8.6,0-17.1,0-25.7,0c-3.7,0-6.7-1.4-7.5-5.4c-0.9-4.5,2-7.7,7.2-7.8c9-0.1,18,0,27,0
		c5.6,0,10.4-1.7,13.8-6.5c2.2-3.1,2.6-5.5-0.8-8.6c-32.7-29.9-65.1-59.9-97.6-89.9c-3.5-3.2-6.9-6.4-10.6-9.8
		c-6.3,5.1-12.5,10.1-18.7,15c-25.1,20.1-55.2,20.6-81.1,1.4c-8.6-6.4-17.3-12.8-26.2-19.4c-8.9,7.9-17.8,15.7-26.6,23.5
		c-30,26.6-60,53.2-90.2,79.7c-2.9,2.6-2.9,4.7-1.1,7.5c2.7,4.3,6.6,6.6,11.7,7c1.9,0.2,3.8,0.2,5.7,0.2c87,0,174,0,261.1,0
		c1.6,0,3.2,0,4.9,0.1c3.9,0.3,6,2.6,6.2,6.3c0.2,3.5-1.8,5.9-5.3,6.6c-1.6,0.3-3.2,0.3-4.8,0.3c-87.9,0-175.8,0-263.7,0
		c-16.3,0-25.2-6.5-30.5-22.2c-0.1-0.2-0.4-0.4-0.6-0.6C29.4,350.1,29.4,274.3,29.4,198.4z"/>
	<path class="st0" d="M298.5,190.4c19.4,0,38.5,0,57.7,0c5.5,0,10.9,0,16.4,0c5.4,0,8.2,2.3,8.2,6.5c0.1,4.3-2.9,6.8-8.5,6.8
		c-23.7,0-47.5,0.1-71.2-0.1c-3.7,0-5.5,0.9-6.3,4.7c-1.2,5.6-3.1,11-4.8,16.9c41.4,0,82.3,0,123.6,0c-2.3-7.8-4.6-15.4-6.7-23
		c-0.8-2.8-1.2-5.8-1.3-8.7c-0.1-12.2,0.2-24.5-0.1-36.7c-0.5-22.4-10.7-39.1-30.9-48.7c-20.1-9.5-39.3-6.6-56.9,6.9
		c-0.6,0.4-1.1,1-1.7,1.4c-3.4,2.4-7.2,2.1-9.5-0.7c-2.4-2.9-2.4-7,1.1-9.4c6.4-4.4,13.1-8.4,19.9-12.1c2.1-1.2,3.1-2.1,3-4.5
		c-0.1-3.2,0-6.5,0.7-9.7c2.3-10.6,12-17.2,23.1-16.2c10,0.9,18.8,9.5,18.4,19.8c-0.2,7.2,2.6,10,8.7,13.1
		c23.8,12.1,36.2,32,37.4,58.8c0.2,3.7,0.2,7.4,0,11.1c-1,18.6,0.7,36.6,7.2,54.3c3.5,9.5-2.7,17.5-12.8,18c-2.4,0.1-4.7,0-7.1,0
		c-9.7,0-19.4,0-29.7,0c4.6,13.4,2.5,24.9-9.8,32.1c-10.1,6-21.2,5.9-31-0.7c-11.2-7.5-13-18.6-8.6-31.4c-9,0-17.5,0-26,0
		c-3.7,0-7.4,0.1-11.1-0.1c-9.6-0.5-15.1-8.1-12.8-17.4c0.1-0.4,0.2-0.9,0.3-1.3c6.8-16.8,7.9-34.2,7.1-52.1
		c-0.5-10.8-0.4-21.6,3.2-31.9c0.6-1.7,1.1-3.5,2.1-4.8c2-2.6,4.7-3.5,7.8-2c3.2,1.5,4.8,4.3,3.7,7.6c-5.9,17-2.9,34.5-3.5,51.8
		C298,189,298.2,189.5,298.5,190.4z M352,238.8c-8.4,0-13.4,3.7-13.8,10.4c-0.4,5.9,3.6,11.1,9.4,12c9.1,1.5,15.6-1.5,17.3-8.1
		c0.5-1.8,0.5-3.8,0.1-5.6C363.7,241.7,359.4,238.9,352,238.8z M343.9,89.4c5.4,0,10.4,0,15.6,0c0.4-4.4,0.8-9-3.6-11
		c-2.3-1.1-5.9-1.1-8.2,0C343.3,80.4,343.4,84.8,343.9,89.4z"/>
	<path class="st0" d="M221,121.5c2.5-32.1,27.8-56.8,59.9-58.2c5.5-0.2,8.7,2,8.8,6.3c0.2,4.2-2.4,6.5-7.8,7c-1,0.1-2.1,0.2-3.1,0.3
		c-18.7,2.1-32.2,11.6-40,28.6c-2.5,5.3-2.9,11.6-4.3,17.4c-0.5,2.3-0.5,5.1-1.9,6.6c-1.4,1.5-4.5,2.6-6.5,2.3
		c-1.8-0.3-3.7-2.7-4.7-4.5C220.7,125.6,221.1,123.4,221,121.5z"/>
	<path class="st0" d="M482.5,123.4c0.4,3.6-0.6,7.1-4.9,8.4c-4.5,1.4-8.2-1.9-8.4-7.4c-0.6-14.6-6.4-26.8-17.5-36.3
		c-7.7-6.6-16.7-10.3-26.8-11.2c-1.6-0.1-3.2-0.2-4.8-0.4c-3.9-0.5-6.4-3.2-6.4-6.6c0-3.6,2.9-6.6,7-6.5c4.4,0.1,8.8,0.6,13.1,1.5
		C460.9,70.4,481.9,95.5,482.5,123.4z"/>
	<path class="st0" d="M281.6,92.1c5-0.1,7.9,2,8.1,6.1c0.2,4.1-2.3,6.6-7.2,7.2c-11.7,1.3-18.4,7.9-19.5,19.6
		c-0.5,4.8-3.2,7.5-7.2,7.2c-3.8-0.3-6.1-3.2-6-7.8C249.8,107.4,264.6,92.4,281.6,92.1z"/>
	<path class="st0" d="M422.4,92.1c17,0.6,31.7,15.9,31.5,32.7c-0.1,4.1-2.5,7-6.2,7.2c-3.7,0.2-6.4-2.1-7-6.4
		c-2-13.4-7.2-18.7-20.2-20.4c-4.3-0.6-7.1-3.5-6.8-7.2C414.1,94,417.2,91.9,422.4,92.1z"/>
</g>
</svg>
