<?xml version="1.0" encoding="utf-8"?>
<!-- Generator: Adobe Illustrator 26.0.1, SVG Export Plug-In . SVG Version: 6.00 Build 0)  -->
<svg version="1.1" id="Layer_1" xmlns="http://www.w3.org/2000/svg" xmlns:xlink="http://www.w3.org/1999/xlink" x="0px" y="0px"
	 viewBox="0 0 512 512" style="enable-background:new 0 0 512 512;" xml:space="preserve">
<style type="text/css">
	.st0{fill:#3F8899;}
</style>
<g>
	<path class="st0" d="M504.9,74.1c-2.7,2.6-5.1,5.9-8.3,7.7c-15.8,9.1-31.8,17.9-47.8,26.7c-1.4,0.8-2.8,1.6-4.3,2.1
		c-4.7,1.7-9.4,0-11.8-4.1c-2.5-4.2-1.7-9.9,2.7-12.4c18.6-10.7,37.3-21.2,56.2-31.3c5.1-2.7,9.4-0.1,13.2,6.4
		C504.9,70.8,504.9,72.4,504.9,74.1z"/>
	<path class="st0" d="M203.9,333.1c3.9,6.8,7.6,13,11.1,19.3c4.4,7.7,3.1,12.5-4.5,17c-7.5,4.4-15.1,8.7-22.9,13.3
		c7.5,13,15.1,25.6,22.1,38.6c4.3,8,8.9,16.3,11.3,25c4,14.9-4.5,31.9-18.4,40c-14,8.1-33,6.6-44.4-4.1c-3.9-3.7-7.5-8.1-10.2-12.8
		c-15.3-25.9-30.3-52-45.2-78.1c-1.7-2.9-3-3.6-6.4-2.5c-32.8,10.9-68.2-4.6-82.9-36.1c-14.3-30.5-3.8-67.8,25.3-85.6
		c26.6-16.3,54-31.4,80.9-47.2c2.6-1.5,5-3.6,6.8-5.9c41.2-52.3,82.3-104.6,123.3-157c7.8-10,17-15.9,29.9-13.9
		c9.8,1.4,16.8,7,21.7,15.5c10.8,18.8,21.7,37.5,32.4,56.4c1.7,3.1,3.5,4.4,7.1,4.1c10.3-0.9,20.7-1.3,31-2
		c5.5-0.4,9.2,1.9,11.9,6.6c5.6,10,11.3,20,17.2,29.8c3.1,5.1,2.8,9.6-0.5,14.4c-5.6,8.1-10.8,16.5-16.5,24.6
		c-2.2,3.2-2.4,5.5-0.4,9c10.1,17,20,34,29.6,51.3c10,18,0,39.7-19.7,43.4c-13.2,2.5-26.4,5-39.6,7.6c-48.6,9.5-97.1,19-145.7,28.5
		C207.2,332.2,206,332.6,203.9,333.1z M250.6,87c-0.6,1-0.9,1.6-1.3,2.2c-35.1,44.7-70.2,89.5-105.3,134.1c-1.8,2.3-1.3,3.8-0.1,5.9
		c15.9,27.4,31.8,54.9,47.5,82.4c1.5,2.6,2.8,3.5,6,2.8c39-7.8,78.1-15.3,117.1-23c16-3.1,32-6.3,48.5-9.6
		C325.6,216.9,288.3,152.3,250.6,87z M175.2,322.3c-16.2-28-32.3-56-48.5-84c-20.8,12-41.1,23.7-61.4,35.4
		c-6,3.5-12.1,6.8-17.9,10.7c-17.5,11.9-25,34.6-18.4,54.5c9.9,29.8,43.3,42.6,71.1,26.8c24.2-13.7,48.2-27.8,72.3-41.7
		C173.3,323.6,174.1,323.1,175.2,322.3z M263.8,70.7c1,1.7,1.8,3.3,2.7,4.8c14.1,24.4,28.1,48.8,42.2,73.2
		c24,41.6,48,83.2,72.1,124.8c0.8,1.4,2,3.9,2.7,3.8c3.9-0.6,8-1.2,11.3-3.1c3.4-2,4.1-6.1,2.7-10c-0.6-1.7-1.5-3.2-2.4-4.7
		c-36.6-63.3-73.1-126.7-109.7-190c-0.6-1.1-1.3-2.3-2-3.3c-4.1-5.6-10.7-5.9-15.3-0.8C266.5,67,265.2,68.9,263.8,70.7z
		 M117.8,378.1c0.7,1.2,1.1,2.1,1.5,2.9c15.3,26.5,30.5,52.9,45.8,79.4c0.9,1.5,1.8,3.1,2.9,4.4c8.2,10,23.8,9.4,30.9-1.2
		c5-7.4,4.3-14.8,0-22.4c-15.3-26.4-30.6-52.9-45.9-79.4c-0.5-0.9-1.2-1.8-2-3C140,365.3,129,371.7,117.8,378.1z M347.3,137.9
		c7.9,13.6,15.3,26.5,23.1,40c4-6,7.5-11.2,10.8-16.5c0.5-0.8,0.5-2.5,0-3.4c-3.6-6.5-7.3-12.9-11.1-19.3c-0.5-0.9-1.6-2-2.4-2
		C361.2,136.9,354.7,137.4,347.3,137.9z M177.9,365.8c5.9-3.4,11.2-6.5,16.8-9.7c-3.4-5.9-6.5-11.3-9.7-16.8
		c-5.9,3.4-11.2,6.5-16.8,9.8C171.6,354.8,174.6,360.1,177.9,365.8z"/>
	<path class="st0" d="M447,153.7c2.4,0.6,6.3,1.7,10.1,2.7c8.7,2.3,17.5,4.6,26.2,7c6.6,1.9,9.7,6.5,8.2,12.1
		c-1.4,5.6-6.5,8.3-13,6.6c-11.9-3.1-23.7-6.2-35.5-9.5c-5.8-1.7-8.7-6.2-7.8-11.2C436.1,156.6,440.1,153.5,447,153.7z"/>
	<path class="st0" d="M380.3,65.9c0.3-1.4,0.9-3.9,1.5-6.4c2.7-10.3,5.4-20.6,8.3-30.8c1.8-6.2,6.8-9.2,12-7.7
		c5.5,1.5,8.2,6.4,6.6,12.6c-3.1,12.2-6.3,24.4-9.8,36.4c-1.7,5.8-6.3,8.2-11.5,7.1C382.9,76.1,380.1,72.3,380.3,65.9z"/>
	<path class="st0" d="M77.5,353.2c-12.6-0.4-20.9-4.7-26.7-13.5c-3.2-4.9-2.5-10.1,1.7-13.4c4.1-3.3,9.4-2.7,13.4,1.6
		c6.6,7.1,9.1,7.5,17.6,2.6c4.1-2.3,8.1-4.8,12.2-7c5.9-3.2,11.6-2,14.4,3c2.7,4.8,1.1,10.3-4.5,13.6c-6,3.6-12,7.1-18.2,10.1
		C83.7,352,79.5,352.7,77.5,353.2z"/>
	<path class="st0" d="M135.8,302.3c5.3,0.2,9.4,4.5,9.2,9.8s-4.6,9.3-10,9.1c-5.4-0.2-9.4-4.6-9.2-9.8
		C126.1,306.1,130.4,302.2,135.8,302.3z"/>
</g>
</svg>
