<?xml version="1.0" encoding="utf-8"?>
<!-- Generator: Adobe Illustrator 26.0.1, SVG Export Plug-In . SVG Version: 6.00 Build 0)  -->
<svg version="1.1" id="Layer_1" xmlns="http://www.w3.org/2000/svg" xmlns:xlink="http://www.w3.org/1999/xlink" x="0px" y="0px"
	 viewBox="0 0 512 512" style="enable-background:new 0 0 512 512;" xml:space="preserve">
<style type="text/css">
	.st0{fill:#005557;}
</style>
<g>
	<path class="st0" d="M380.3,287.3c0,2.3,0,4.2,0,6.1c0,51.3,0,102.6,0,153.9c0,25.6-16.3,41.8-41.9,41.8c-55,0-110,0-165,0
		c-25.3,0-41.6-16.3-41.6-41.5c0-46.1,0-92.2,0-138.3c0-1.9,0-3.9,0-6.5c-4,0-7.8,0-11.6,0c-5.6-0.1-7.9-1.9-9.3-7.3
		c-0.2-0.8-0.3-1.6-0.5-2.4c-3.2-15.5-3.2-15.5-18-21.5c-1.2-0.5-3.1-0.2-4.3,0.5c-4.6,2.7-9,5.7-13.5,8.6
		c-4.2,2.7-7.9,2.2-11.3-1.3c-5.6-5.6-11.2-11.2-16.8-16.8c-3.5-3.5-3.9-7.2-1.2-11.3c2.6-3.9,5.1-7.9,7.6-11.8
		c0.5-0.8,1.1-1.6,1.5-2.5c1.3-2.7-6-18-8.9-18.7c-5.2-1.2-10.4-2.4-15.6-3.6c-4.7-1-6.8-4-6.8-8.7c0-7.9,0-15.9,0-23.8
		c0-4.9,2.4-7.8,7.2-8.8c4.9-1,9.8-1.9,14.6-3.4c1.8-0.6,3.3-2.4,4.5-4c0.9-1.2,1-3.2,1.9-4.4c4.8-6.6,2.6-11.9-1.7-18
		c-8.6-12.3-8.3-12.5,2.4-23.3c3.8-3.8,7.6-7.5,11.3-11.4c3.4-3.5,7.2-4,11.3-1.3c4.3,2.8,8.6,5.8,13.1,8.2c1.5,0.8,3.8,0.6,5.6,0.4
		c1.5-0.2,2.9-1.7,4.4-1.9c8.3-1.3,11.1-6.8,11.8-14.4c0.2-2.9,1.1-5.7,1.9-8.5c1.3-4.2,5-6.5,8.8-5.8c4,0.8,6.9,4.3,6.1,8.6
		c-1.5,8.4-3.2,16.8-5.5,25.1c-0.6,2.1-3.4,4.1-5.7,5.2c-6.7,3.2-13.7,5.7-20.4,8.7c-3.4,1.6-6.5,1.6-9.6-0.5
		c-3.4-2.2-7-4.1-10.1-6.6c-3.3-2.7-5.5-2-8,1c-1.6,2-3.9,3.4-6.1,5.4c3.2,5,6,9.6,9,13.9c2.7,3.9,2.7,7.5,0.5,11.7
		c-3,5.9-5.4,12.1-7.6,18.3c-1.5,4.3-3.9,6.8-8.4,7.7c-5.2,1-10.3,2.3-15.6,3.5c0,4.5,0,8.6,0,13.2c5.5,1.3,10.9,2.7,16.4,3.8
		c4,0.8,5.9,3.2,7.3,6.9c2.5,6.6,5.2,13.2,8.2,19.6c1.7,3.6,1.8,6.7-0.4,10c-2.5,3.8-4.8,7.7-7.4,11.4c-1.5,2.1-1.3,3.5,0.5,5.4
		c6.9,7.2,6.9,7.3,15.1,2.1c0.7-0.4,1.4-0.8,2-1.3c6.1-5.4,12-5.4,18.9-0.9c4.1,2.7,9.1,4.2,13.9,5.5c5,1.4,7.7,4.1,8.6,9.2
		c0.8,4.9,2.1,9.8,3.1,14.9c2.2,0,4.3,0,6.6,0c0.1-1.4,0.3-2.6,0.3-3.9c0-14,0-28.1,0-42.3c-14.3-0.7-26.1-5.9-35.3-16.5
		c-17.9-20.5-13.9-53.5,8.5-68.2c2.2-1.4,6-1.9,8.4-1.1c2,0.7,4.4,4.2,4.2,6.2c-0.3,2.8-2.3,6-4.6,7.8c-8.4,7-12.8,15.7-12.3,26.7
		c0.6,16.1,14.7,29.4,31,29.1c0-1.9,0-3.8,0-5.7c0-51.5,0-102.9,0-154.4c0-25.3,16.3-41.6,41.5-41.6c55.2,0,110.3,0,165.5,0
		c25.2,0,41.5,16.4,41.5,41.7c0,46.1,0,92.2,0,138.3c0,1.9,0,3.8,0,6.4c3.9,0,7.6,0,11.3,0c6.1,0.1,8.4,1.9,9.8,7.9
		c1.1,4.7,1.8,9.5,3.2,14.2c0.5,1.6,2.2,3.2,3.7,4.2c2,1.3,4.7,1.5,6.6,2.9c5.1,3.5,9.3,2.5,13.8-1.2c2.8-2.4,6.2-4.1,9.3-6.1
		c3.6-2.3,7.1-1.9,10.2,1.1c6,5.9,12,11.8,17.9,17.8c3.2,3.2,3.3,6.8,0.9,10.6c-2.9,4.5-5.9,8.9-8.5,13.5c-0.8,1.4-0.6,3.5-0.3,5.2
		c0.3,1.7,1.8,3.2,2.1,4.9c1.3,8,6.7,10.3,14,11.7c14.8,2.7,14.7,3.1,14.7,18.2c0,5.2,0,10.4,0,15.5c-0.1,5.5-1.9,7.8-7.3,9.2
		c-0.8,0.2-1.6,0.4-2.3,0.6c-5.1,1.3-11.4,1.2-15.1,4.2c-3.5,2.9-4.5,9-6.3,13.9c-0.5,1.2-0.2,3.1,0.5,4.3c2.7,4.6,5.7,9,8.6,13.5
		c2.6,4,2.2,7.6-1.1,11c-5.7,5.8-11.4,11.5-17.1,17.2c-3.5,3.5-7.2,3.9-11.4,1.1c-3.9-2.6-7.9-5.1-11.8-7.6
		c-0.8-0.5-1.6-1.1-2.5-1.5c-2.7-1.3-18,6.1-18.6,9c-1.1,5-2.1,10.1-3.4,15.1c-1.3,5.2-5,7.9-9.3,7c-4.4-1-6.8-4.8-5.7-10.1
		c1.4-7.5,2.8-15,5-22.2c0.7-2.5,3.3-5.1,5.7-6.3c6.8-3.3,13.8-6.3,20.9-8.7c2.7-0.9,6.4-0.8,9,0.3c4.3,1.8,8.1,4.7,11.9,7.4
		c2.2,1.5,3.6,1.3,5.3-0.6c2.2-2.3,4.8-4.3,7.5-6.5c-3.4-5.3-6.1-9.8-9.1-14.2c-2.6-3.7-2.6-7.2-0.6-11.3c3-6.1,5.5-12.4,7.8-18.7
		c1.5-4.1,3.7-6.6,8-7.4c5.2-1,10.4-2.3,15.8-3.5c0-4.4,0-8.7,0-13.4c-5.2-1.1-10.3-2.4-15.5-3.4c-4.5-0.8-6.9-3.4-8.3-7.7
		c-2.1-6.2-4.6-12.4-7.6-18.3c-2.2-4.3-2.2-7.8,0.6-11.7c2.4-3.4,4.4-7.2,6.9-10.6c1.6-2.2,1.1-3.5-0.6-5.3c-6.9-7.2-6.8-7.2-15.1-2
		c-1.9,1.2-3.9,2.3-5.7,3.7c-3.9,2.9-7.5,2.4-11.7,0.3c-5.6-2.8-11.4-5.4-17.4-7.2c-4.9-1.6-7.7-4.3-8.5-9.3
		c-0.8-4.9-2.1-9.8-3.1-14.8c-2.3,0-4.3,0-6.6,0c0,15.4,0,30.5,0,46c2.6,0.4,5.2,0.7,7.9,1.2c18.2,3.1,33.3,17.1,37.2,35.2
		c4.1,19.4-1.9,35.4-17.4,47.7c-2.1,1.6-5.4,2.7-7.9,2.4c-5.7-0.6-8-8-4.1-12.4c1.2-1.3,2.7-2.3,4.1-3.4c9.9-8.3,13.6-22,9.2-34.3
		C405,295.4,393.6,287.3,380.3,287.3z M147.3,255.7c0,64.1,0,128.1,0,192.2c0,16.1,9.5,25.5,25.7,25.5c55.3,0,110.7,0,166,0
		c16.4,0,25.8-9.4,25.8-26c0-127.6,0-255.3,0-382.9c0-16.8-9.3-26-26.2-26c-55,0-110,0-165,0c-17.1,0-26.3,9.3-26.3,26.5
		C147.3,128.6,147.3,192.2,147.3,255.7z"/>
	<path class="st0" d="M419.2,85.2c4.2,0.1,7.6,3.6,7.6,7.8c0,4.5-3.9,8.6-8.1,8.5c-4.4-0.1-7.4-3.2-7.4-7.8
		C411.3,88.7,414.7,85.1,419.2,85.2z"/>
	<path class="st0" d="M411.3,124.7c0-5,3.3-8.5,7.9-8.5c4.2,0.1,7.6,3.6,7.6,7.8c0,4.5-3.9,8.6-8.1,8.5
		C414.3,132.4,411.3,129.3,411.3,124.7z"/>
	<path class="st0" d="M411.3,155.6c0.1-4.9,3.6-8.5,8.1-8.2c4.2,0.2,7.5,3.8,7.4,8c-0.1,4.5-4.1,8.5-8.3,8.3
		C414.1,163.3,411.2,160.2,411.3,155.6z"/>
	<path class="st0" d="M85.1,355.9c0.1-4.7,3.4-8.1,7.7-8.2c4.3,0,8,3.7,7.8,8c-0.2,4.6-4,8.3-8.4,8.1
		C87.7,363.6,85,360.6,85.1,355.9z"/>
	<path class="st0" d="M85.1,386.9c0.1-4.7,3.4-8.1,7.7-8.2c4.4,0,8,3.7,7.8,8c-0.2,4.6-4,8.3-8.4,8.1
		C87.8,394.7,85,391.6,85.1,386.9z"/>
	<path class="st0" d="M92.4,426c-4.5-0.1-7.3-3.1-7.3-7.7c0-4.9,3.5-8.5,8-8.4c4.2,0.1,7.6,3.7,7.5,7.8
		C100.6,422.2,96.8,426.1,92.4,426z"/>
	<path class="st0" d="M197,255.9c7.6,7.6,14.8,14.8,22,22c1.3,1.3,2.6,2.5,3.7,3.8c3,3.6,2.9,7.9-0.2,10.9c-3.1,3-7.4,3-10.9-0.1
		c-2.2-1.9-4.1-4.1-6.2-6.1c-7.9-7.9-15.8-15.7-23.6-23.7c-4.7-4.8-4.7-8.5,0.1-13.4c9.6-9.6,19.2-19.2,28.8-28.8
		c4.1-4.1,8.6-4.4,11.9-1c3.4,3.3,3.1,7.9-1,12C213.7,239.5,205.6,247.4,197,255.9z"/>
	<path class="st0" d="M314.9,255.7c-7.9-7.8-15.4-15.2-22.8-22.6c-1-1-2.1-2-3-3.1c-2.8-3.5-2.6-7.6,0.3-10.5
		c2.9-2.9,7.3-3.4,10.5-0.3c10.8,10.5,21.4,21.1,31.9,31.9c3.2,3.3,2.6,7.3-0.5,10.5c-10.2,10.4-20.5,20.7-30.9,30.9
		c-3.4,3.3-7.8,3.1-10.9,0.2c-3.2-3.1-3.3-7.7,0.2-11.2c7.1-7.3,14.4-14.4,21.6-21.6C312.3,258.6,313.4,257.4,314.9,255.7z"/>
	<path class="st0" d="M271.5,225.9c-1.1,4.3-2.4,9.4-3.7,14.6c-3.9,15.5-7.7,31-11.6,46.5c-1.5,6-5.2,8.8-9.7,7.7
		c-4.9-1.2-6.8-5.3-5.2-11.6c4.9-19.7,9.8-39.4,14.8-59.1c1.2-4.7,4.6-7.2,8.7-6.6C268.6,217.8,271.4,221.1,271.5,225.9z"/>
	<path class="st0" d="M255.6,69.6c-7.3,0-14.6,0.1-21.8,0c-5.4-0.1-8.7-3.1-8.8-7.6c-0.1-4.6,3.3-7.8,8.6-7.8
		c14.9-0.1,29.8-0.1,44.6,0c5.4,0,8.7,3.1,8.8,7.6c0.1,4.7-3.4,7.8-9.1,7.9C270.5,69.7,263,69.6,255.6,69.6z"/>
</g>
</svg>
