<?xml version="1.0" encoding="utf-8"?>
<!-- Generator: Adobe Illustrator 26.0.1, SVG Export Plug-In . SVG Version: 6.00 Build 0)  -->
<svg version="1.1" id="Layer_1" xmlns="http://www.w3.org/2000/svg" xmlns:xlink="http://www.w3.org/1999/xlink" x="0px" y="0px"
	 viewBox="0 0 512 512" style="enable-background:new 0 0 512 512;" xml:space="preserve">
<style type="text/css">
	.st0{fill:#003A7F;}
</style>
<g>
	<polygon class="st0" points="245.9,332.7 251.8,332.7 255.8,336.7 259.8,332.7 265.9,332.7 265.9,259.1 245.9,259.1 	"/>
	<path class="st0" d="M214.8,250.7v0.5h82.2l-0.1-0.5c1-7.1,3.4-12.9,6.1-17.5h-94.3C211.4,237.8,213.9,243.6,214.8,250.7z"/>
	<path class="st0" d="M277.1,332.2c9-1.8,20-12.6,20-21.8v-51.3h-20V332.2z"/>
	<path class="st0" d="M214.7,310.5c0,9.9,10.9,19.9,20,21.8v-73.1h-20V310.5z"/>
	<path class="st0" d="M255.8,181.2c-51.3,0-92.8,41.6-92.8,92.8s41.6,92.8,92.8,92.8s92.8-41.6,92.8-92.8S307.1,181.2,255.8,181.2z
		 M308.5,260.2c0,0.9,0,1.9,0,2.8v48c0,19.2-15.6,34.9-34.9,34.9h-11.7l-6.1,6.1l-6.1-6.1h-11.7c-19.2,0-34.9-15.6-34.9-34.9v-48
		c0-1,0-1.9,0.1-2.8H203c0-20.7-14.3-32.9-14.3-32.9h134.1C323,227.3,308.5,239.5,308.5,260.2z"/>
	<path class="st0" d="M467.8,169.8c-15.9,0-29.4,10.4-34.1,24.7l-68.1-0.1l-7.6-5.6l-11.4-35.1h-37l-10.2-7.4L277.4,83
		c8.6-6.6,14.2-16.9,14.2-28.6c0-19.8-16.1-35.9-35.9-35.9c-19.8,0-35.9,16.1-35.9,35.9c0,11.7,5.6,22.1,14.2,28.6l-21.9,63.3
		l-9.9,7.2h-35.2L156.1,187l-10,7.3l-67.9,0.2c-4.7-14.4-18.2-24.7-34.1-24.7c-19.8-0.1-35.9,16-35.9,35.8s16.1,35.9,35.9,35.9
		c7.4,0,14.3-2.3,20.1-6.1l54.3,42.2l4.1,12.8l-10.1,30.9l-0.9,2.7l28.7,20.9l3.7,11.4l-19.8,65.3c-19.2,0.7-34.6,16.5-34.6,35.9
		c0,19.8,16.1,35.9,35.9,35.9c19.8,0,35.9-16.1,35.9-35.9c0-3.7-0.6-7.4-1.6-10.7l55.9-39h10.9l30.1,21.9l30.2-21.9h9.2l56,39
		c-1.1,3.4-1.6,7-1.6,10.7c0,19.8,16.1,35.9,35.9,35.9s35.9-16.1,35.9-35.9c0-19.4-15.4-35.2-34.7-35.9l-19.8-65.1l3.2-9.8
		l30.9-22.4l-11.8-36.3l3.4-10.4l54.2-42.2c5.7,3.9,12.7,6.2,20.1,6.2c19.8,0,35.9-16.1,35.9-35.9S487.4,169.8,467.8,169.8z
		 M42.9,230.3c-13.4,0-24.3-10.9-24.3-24.3c0-13.4,10.9-24.3,24.3-24.3c13.4,0,24.3,10.9,24.3,24.3
		C67.2,219.4,56.3,230.3,42.9,230.3z M231.4,53.8c0-13.4,10.9-24.3,24.3-24.3s24.3,10.9,24.3,24.3c0,13.4-10.9,24.3-24.3,24.3
		S231.4,67.2,231.4,53.8z M274.1,138.4l-18.4-11.1l-18.3,12l17-46.8l0.7-2c0,0,0,0,0,0l0.5-1.5l0.6,1.5c0.1,0,0.1,0,0.3,0l3.6,10.3
		L274.1,138.4z M110.3,228.6l5.7,21.1l-42.2-33l52.7-2.1L110.3,228.6z M124.8,482.5c-13.4,0-24.3-10.9-24.3-24.3
		s10.9-24.3,24.3-24.3s24.3,10.9,24.3,24.3S138.1,482.5,124.8,482.5z M176.8,407.7l-16.8,11.7L142.1,432l13-51.1l8.8,19.6l21.9,0.5
		l-9.4,6.6H176.8z M386.9,435c13.4,0,24.3,10.9,24.3,24.3c0,13.4-10.9,24.3-24.3,24.3s-24.3-10.9-24.3-24.3
		C362.7,445.8,373.5,435,386.9,435z M368.5,432.1l-44.4-28.5l21.4-2.2l7.4-20.6L368.5,432.1z M392.6,321.4l-136,98.6l-13.6-9.9
		l-25.1-17.9h-0.1l-61.6-44.8l-21.4-16.1l-14-10.2l40.1-121.9l0.2-0.1l2.1-6.9l9.6-30.8l127.1,0.7l0.3,0.2l4.8-0.2l35.8-0.5
		l12.3,39.2l24.6,78.1l0,0.1l0.6,1.5v0L392.6,321.4z M397.5,250.3l4.1-21.1l-17.6-13l53.6-0.2L397.5,250.3z M468.1,229.8
		c-13.4,0-24.3-10.9-24.3-24.3s10.9-24.3,24.3-24.3s24.3,10.9,24.3,24.3S481.5,229.8,468.1,229.8z"/>
</g>
</svg>
