<?xml version="1.0" encoding="utf-8"?>
<!-- Generator: Adobe Illustrator 26.0.1, SVG Export Plug-In . SVG Version: 6.00 Build 0)  -->
<svg version="1.1" id="Layer_1" xmlns="http://www.w3.org/2000/svg" xmlns:xlink="http://www.w3.org/1999/xlink" x="0px" y="0px"
	 viewBox="0 0 512 512" style="enable-background:new 0 0 512 512;" xml:space="preserve">
<style type="text/css">
	.st0{fill:#F9A01B;}
</style>
<g>
	<path class="st0" d="M186.3,409.3c0-11.3-0.1-22.7,0-34c0.2-23-8.1-42.4-24.4-58.6c-27.8-27.6-41.4-61.1-40.8-100.3
		c0.9-62.3,48.2-118,109.6-128.9c74.1-13.2,142.6,32.3,157.5,106c9.5,46.7-3.6,87.7-36.8,121.9c-12.9,13.3-22,28.1-24.8,46.5
		c-0.7,4.7-0.8,9.4-0.9,14.1c-0.1,24.8,0,49.7,0,74.5c0,9.2-1.9,11.3-10.9,11c-3.7-0.1-5.2,1.2-6.2,4.7c-2.4,8.3-5.3,16.4-7.8,24.6
		c-1.3,4.3-4.1,6.4-8.6,6.4c-24.2,0-48.4,0-72.5,0c-4.5,0-7.1-2.2-8.5-6.5c-2.5-8.4-5.4-16.7-8-25.1c-0.8-2.7-1.9-4.1-5.2-4.1
		c-10.4,0-11.8-1.5-11.8-12.2C186.3,436.1,186.3,422.7,186.3,409.3z M201,387.3c36.9,0,73.5,0,111.2,0c0-8.8-0.8-17.3,0.2-25.6
		c2.6-22.1,13.1-40.3,28.7-56.1c28.6-28.9,40.6-64.1,34.2-104.2c-10.7-66.7-69.9-109.7-137.1-100.8
		c-56.1,7.5-101.3,57.7-102.8,114.3c-0.9,35.8,11.2,66.5,36.7,91.8c15,14.9,24.7,32.5,27.4,53.5C200.6,369,200.5,378,201,387.3z
		 M200.8,447.1c37.1,0,73.6,0,110.4,0c0-15.2,0-29.9,0-44.9c-36.9,0-73.5,0-110.4,0C200.8,417.2,200.8,432,200.8,447.1z
		 M288.3,483.1c2.2-7,4.4-13.9,6.7-21c-26.3,0-51.8,0-78,0c2.2,6.7,4.1,13,6.3,19.1c0.3,0.9,2,1.8,3,1.8
		C246.8,483.1,267.4,483.1,288.3,483.1z"/>
	<path class="st0" d="M147.1,322.1c1.8,1.6,4.8,3.1,5.2,5.1c0.5,2.5-0.2,6.3-1.8,8.1c-7.9,8.5-16.3,16.6-24.5,24.8
		c-1.8,1.8-3.5,3.7-5.4,5.3c-3.2,2.6-6.6,2.7-9.6-0.3c-3-2.9-3.2-6.6-0.4-9.5c10.2-10.5,20.7-20.8,31.1-31.1
		C142.8,323.5,144.7,323.2,147.1,322.1z"/>
	<path class="st0" d="M365.6,322.1c2.5,1.5,4.5,2.2,5.9,3.5c9.8,9.6,19.5,19.2,29.1,29c3.5,3.6,3.6,7.8,0.6,10.8
		c-3.1,3-7,2.8-10.7-0.9c-9.6-9.5-19.3-18.9-28.5-28.8c-1.8-1.9-2.5-5.9-1.9-8.5C360.3,325.2,363.6,323.8,365.6,322.1z"/>
	<path class="st0" d="M365.4,118.1c-2.1-1.8-5.1-3.2-5.6-5.2c-0.6-2.5,0-6.3,1.7-8.1c6.2-6.9,13-13.3,19.5-19.9
		c3.2-3.2,6.4-6.5,9.7-9.6c3.4-3.2,7.6-3.2,10.4-0.4c2.8,2.9,2.8,7.1-0.4,10.4c-9.7,9.9-19.5,19.7-29.4,29.4
		C370,116,368,116.7,365.4,118.1z"/>
	<path class="st0" d="M115.4,72c2.7,1.6,4.8,2.3,6.3,3.7c9.6,9.4,19.2,19,28.6,28.6c3.6,3.7,3.7,7.7,0.7,10.7
		c-2.9,3-7.2,2.8-10.7-0.7c-9.7-9.6-19.5-19.1-28.8-29.1c-1.7-1.8-2.3-5.6-1.7-8.1C110.3,75.2,113.3,73.8,115.4,72z"/>
	<path class="st0" d="M263.1,43.4c0,6.6,0.1,13.2,0,19.8c-0.1,5.5-2.7,8.5-7.2,8.4c-4.3-0.1-6.9-3-6.9-8.2c-0.1-13.3-0.1-26.7,0-40
		c0-5.3,3-8.6,7.2-8.5c4.1,0.1,6.9,3.3,6.9,8.3C263.2,29.8,263.1,36.6,263.1,43.4z"/>
	<path class="st0" d="M433.2,213c6.6,0,13.2-0.1,19.7,0c5.3,0.1,8.2,2.5,8.3,6.8c0.1,4.3-2.8,7.2-7.9,7.3c-13.7,0.1-27.3,0.1-41,0
		c-4.9-0.1-8.1-3.3-7.9-7.4c0.2-3.9,3.2-6.6,8-6.7C419.3,212.9,426.2,213,433.2,213z"/>
	<path class="st0" d="M79.6,213c6.6,0,13.2-0.1,19.7,0c5.1,0.1,8.3,2.9,8.3,6.9c0,4.1-3.1,7.1-8.2,7.2c-13.5,0.1-27,0.1-40.5,0
		c-5.2,0-8.1-2.8-8.1-7c0-4.5,2.9-7,8.5-7.1C66.1,212.9,72.8,213,79.6,213z"/>
	<path class="st0" d="M338.1,271.2c-1.2,2.2-1.9,4.4-3.3,5.8c-7.1,7.3-14.2,14.4-21.5,21.5c-4.1,4-7.6,4-11.9-0.1
		c-2.1-2-4.3-3.8-6.1-6.1c-3.3-4.4-6.7-5.5-11.9-2.7c-3,1.6-4.4,2.8-4.1,6.3c0.3,4.2,0.2,8.5,0,12.7c-0.1,4.6-2.6,7.3-7.3,7.3
		c-10.7,0.1-21.3,0.2-32,0c-4.9-0.1-7.2-2.7-7.4-7.7c-0.1-3-0.4-6.1,0-9.1c0.8-5.7-1-9.1-6.9-10.6c-2.8-0.7-4.5-1-6.6,1.3
		c-2.9,3.3-6.1,6.4-9.3,9.3c-3.7,3.4-7.2,3.4-10.8-0.1c-7.5-7.3-14.9-14.7-22.2-22.2c-3.4-3.5-3.3-7.2,0.1-10.8
		c3.1-3.3,6.6-6.3,9.5-9.8c1-1.2,1.7-3.9,1-5c-1.8-2.8-0.5-8.1-6.2-7.8c-4.2,0.2-8.5,0.1-12.7,0c-6.2-0.1-8.7-2.6-8.8-8.6
		c-0.1-10-0.1-20,0-29.9c0.1-5.6,2.6-8,8.1-8.1c3-0.1,6.1-0.4,9.1,0.1c5.6,0.8,8.5-1.2,10.3-6.7c1.1-3.3,0.9-5.1-1.6-7.3
		c-3-2.7-5.9-5.6-8.6-8.6c-3.5-3.8-3.6-7.5-0.1-11.2c7.2-7.4,14.5-14.7,21.9-21.9c3.7-3.6,7.4-3.5,11.2,0c2.4,2.2,4.8,4.3,6.8,6.8
		c3.3,4.3,6.7,5,11.6,2.4c3-1.6,4.4-2.9,4.1-6.3c-0.3-4-0.2-8.1-0.1-12.2c0.1-5.2,2.6-7.9,7.8-7.9c10.3-0.1,20.6-0.1,30.9,0
		c5.4,0.1,7.8,2.7,8,8.3c0.1,4.1,0.2,8.1,0,12.2c-0.1,2.8,0.3,4.9,3.6,5.6c3.4,0.7,6.6,4.7,10.2,0c2.4-3.2,5.6-5.9,8.5-8.6
		c3.9-3.7,7.4-3.9,11.1-0.3c7.5,7.3,14.9,14.7,22.2,22.2c3.3,3.5,3.2,7.2-0.1,10.8c-3.1,3.4-6.6,6.3-9.6,9.8c-1,1.2-1.7,3.9-1,5
		c1.8,2.8,0.5,8.1,6.1,7.9c4.4-0.1,8.8-0.1,13.2,0c5.6,0.1,8.2,2.5,8.3,7.9c0.2,10.1,0.2,20.3,0,30.4c-0.1,5.7-2.8,8.1-8.6,8.3
		c-2.7,0.1-5.5,0.4-8.1,0c-5.9-0.9-9.4,0.9-11,7c-0.7,2.6-1.1,4.2,1.1,6.1c3.2,2.8,6.1,5.8,9,8.9
		C335.9,267.1,336.8,269.1,338.1,271.2z M205.1,284.3c3.1-3.2,6.3-6.4,9.3-9.7c3.3-3.6,6.8-4.2,11.3-1.9c4.6,2.4,9.5,4.4,14.4,6
		c4.8,1.5,6.9,4.4,6.7,9.3c-0.2,4.5,0,9,0,13.4c6.5,0,12.3,0,18.3,0c0-5.1,0-9.8,0-14.6c0-4,1.9-6.5,5.8-7.9
		c5.4-1.9,10.7-4.1,15.8-6.6c3.9-1.9,7.1-1.6,10.1,1.5c3.3,3.5,6.7,7,9.8,10.2c4.7-4.5,9-8.6,13.7-13.1c-3.5-3.4-6.9-6.6-10.3-9.9
		c-3.3-3.1-3.6-6.4-1.5-10.5c2.3-4.5,4.3-9.2,5.9-13.9c2.2-6.4,3.3-7.3,10.2-7.4c4.3,0,8.6,0,12.9,0c0-6.6,0-12.2,0-18.4
		c-4.9,0-9.4,0-14,0c-4.6,0-7.5-1.9-8.9-6.6c-1.6-5.1-3.8-10.1-6.2-14.9c-2-4.1-1.8-7.4,1.5-10.5c3.4-3.2,6.8-6.5,10.3-9.8
		c-4.7-4.6-8.9-8.7-13.7-13.3c-3,3.1-6.1,6.4-9.2,9.7c-3.3,3.7-6.9,4.1-11.3,1.8c-4.6-2.3-9.5-4.3-14.5-5.9
		c-4.4-1.5-6.8-4.1-6.6-8.9c0.1-4.7,0-9.3,0-14c-6.5,0-12.3,0-18.3,0c0,4.9-0.1,9.5,0,14c0.1,4.5-2,7.2-6.2,8.7
		c-5.2,1.9-10.4,4-15.4,6.3c-4.1,1.9-7.4,1.6-10.5-1.8c-3.1-3.5-6.3-6.9-9-9.9c-5.1,4.8-9.4,8.8-14.1,13.2c3.3,3.2,6.6,6.4,9.9,9.4
		c3.7,3.4,3.9,7,1.6,11.3c-2.3,4.3-4.1,8.9-5.7,13.5c-2.1,6.1-3.6,7.4-10.2,7.5c-4.3,0-8.6,0-12.9,0c0,6.6,0,12.2,0,18.4
		c5.1,0,9.8,0.1,14.5,0c4.3-0.1,6.8,1.9,8.2,6c1.9,5.2,3.9,10.4,6.3,15.4c2,4.1,1.7,7.4-1.6,10.5c-3.4,3.2-6.9,6.4-10.1,9.5
		C196.5,275.5,200.6,279.7,205.1,284.3z"/>
	<path class="st0" d="M214.3,219.5c0.2-22.7,18.8-41.2,41.5-41.2c23.4,0,42,18.8,41.9,42.3c-0.1,22.8-19.1,41.4-42,41.2
		C232.6,261.7,214.1,242.8,214.3,219.5z M283.5,220.1c0.1-15.1-12-27.4-27.1-27.5c-15.4-0.2-27.7,12-27.8,27.4
		c0,15.1,12.1,27.5,27.1,27.7C270.8,247.9,283.4,235.4,283.5,220.1z"/>
</g>
</svg>
