<?xml version="1.0" encoding="utf-8"?>
<!-- Generator: Adobe Illustrator 26.0.1, SVG Export Plug-In . SVG Version: 6.00 Build 0)  -->
<svg version="1.1" id="Layer_1" xmlns="http://www.w3.org/2000/svg" xmlns:xlink="http://www.w3.org/1999/xlink" x="0px" y="0px"
	 viewBox="0 0 512 512" style="enable-background:new 0 0 512 512;" xml:space="preserve">
<style type="text/css">
	.st0{fill:#859E28;}
</style>
<g>
	<path class="st0" d="M341.1,145.8c7.6,0,14.8,0,22.3,0c2.9-16.4,11.3-29.1,26.2-37c10.6-5.6,21.9-7,33.6-4.3
		c24.1,5.4,40,27.3,38.2,52.3c-1.4,19.6-17.9,46.1-54.5,45.2c0,1.7,0,3.5,0,5.2c0,22.2,0.1,44.5,0,66.7
		c-0.2,21.7-14.9,36.2-36.7,36.4c-8,0.1-15.9,0-23.9,0c-1.5,0-3,0-4.9,0c-0.1,1.9-0.3,3.5-0.3,5.1c0,29,0,58,0,87
		c0,11.7,0.1,23.4,0,35.1c-0.1,21.6-14.3,35.8-35.9,35.8c-72.8,0-145.7,0-218.5,0c-21.9,0-36.2-14.2-36.2-36
		c0-120.8,0-241.5,0-362.3c0-21.9,14.2-36.1,36.1-36.1c72.8,0,145.7,0,218.5,0c21.7,0,35.9,14.1,36,35.7c0.1,21.9,0,43.8,0,65.8
		C341.1,142,341.1,143.8,341.1,145.8z M327.3,310.8c-0.8-0.3-1.1-0.5-1.3-0.5c-15.5,0-30.9,0-46.4-0.1c-4.2,0-7,1.5-9.2,5.1
		c-5.4,9.2-11.1,18.2-16.7,27.3c-9.3,14.9-27.4,14.9-36.7-0.1c-5.7-9.2-11.4-18.4-17-27.6c-2-3.3-4.7-4.9-8.5-4.7
		c-1.8,0.1-3.6,0-5.4,0c-22.8,0-37.6-14.6-37.6-37.3c-0.1-29.7,0-59.5,0-89.2c0-3.1,0.1-6.4,0.7-9.4c3.6-17,17.7-28.1,35.8-28.1
		c45.7-0.1,91.3,0,137,0c1.7,0,3.5,0,5.1,0c0-12.1,0-23.4,0-34.9c-87.8,0-175.3,0-262.8,0c0,96.7,0,193.2,0,289.6
		c87.8,0,175.3,0,263,0C327.3,370.6,327.3,340.8,327.3,310.8z M272.2,159.6c-29.1,0-58.3-0.1-87.4,0c-12.8,0-22.6,8.7-22.6,20.8
		c-0.2,31.8-0.2,63.7,0,95.5c0,9.4,6.4,17.5,15.5,19.7c4,1,8.3,1.1,12.5,0.9c10-0.3,17.2,3.8,22.2,12.5c5.1,8.8,10.6,17.4,16,26.1
		c4.3,6.9,9.6,6.9,13.8,0.1c5.5-8.9,11.1-17.8,16.4-26.9c4.8-8.2,11.7-11.8,21.2-11.8c30,0.1,60.1,0.1,90.1,0
		c14.6,0,23.3-8.7,23.4-23.2c0.1-23.9,0-47.8,0.1-71.6c0-3.1-1.1-4.4-3.7-5.7c-13.2-6.9-21.7-17.8-25.2-32.3
		c-0.8-3.4-2.1-4.2-5.3-4.2C330.2,159.7,301.2,159.6,272.2,159.6z M64,414.8c0,8.1,0,15.8,0,23.6c0.1,12.6,8.7,21.2,21.3,21.2
		c73.6,0,147.1,0,220.7,0c0.8,0,1.5,0,2.3,0c8.9-0.6,17.3-6.6,18.4-15.2c1.1-9.7,0.3-19.6,0.3-29.6
		C239.4,414.8,152.1,414.8,64,414.8z M64,97.1c88,0,175.5,0,263.4,0c0-7.2,0-14.3,0-21.3c0-15.7-7.8-23.5-23.5-23.5
		c-72.2,0-144.5,0-216.7,0c-1.4,0-2.7,0-4.1,0c-9.9,0.7-18.5,8.6-19,18.4C63.7,79.3,64,88,64,97.1z M412.4,117
		c-17.5-1-34.6,14.6-35.5,32.5c-1.1,20.8,13.8,37.7,34.1,38.7c18.9,0.9,36-14.3,37.1-33C449.2,134.5,434,118.2,412.4,117z"/>
	<path class="st0" d="M278.1,221.1c28.1,0,56.2,0,84.2,0c1.8,0,3.6,0,5.3,0.5c3.3,0.9,5.4,3.6,4.5,6.7c-0.7,2.3-3,4.4-5.1,5.9
		c-1.1,0.8-3.2,0.4-4.8,0.4c-56.3,0-112.6,0-168.9,0c-7,0-10.2-2.1-10.3-6.6c-0.1-4.7,3.2-7,10.4-7
		C221.6,221.1,249.9,221.1,278.1,221.1z"/>
	<path class="st0" d="M278,185.6c20.7,0,41.4,0,62.1,0c3.7,0,6.6,1,7.8,4.7c1.3,4-1.2,8-5.5,8.7c-1.3,0.2-2.7,0.1-4,0.1
		c-40.5,0-81,0-121.6,0c-1.1,0-2.1,0.1-3.1-0.1c-4.1-0.5-6.7-3.3-6.4-7.2c0.2-3.7,2.8-6.2,6.9-6.2c6.9-0.1,13.8,0,20.7,0
		C249.2,185.6,263.6,185.6,278,185.6z"/>
	<path class="st0" d="M277.6,256.9c20.7,0,41.4-0.1,62.1,0.1c2.5,0,5.7,1.3,7.3,3.2c3,3.5,0.4,9.1-4.3,10c-1.3,0.3-2.7,0.2-4,0.2
		c-40.7,0-81.3,0-122,0c-0.9,0-1.8,0-2.7,0c-4.2-0.3-6.9-3-6.8-6.8c0-3.9,2.7-6.6,7-6.6c6.9-0.1,13.8,0,20.7,0
		C249.1,256.9,263.4,256.9,277.6,256.9z"/>
	<path class="st0" d="M195.6,443.7c-1.8,0-3.6,0.1-5.4,0c-3.7-0.4-5.7-2.7-6-6.2c-0.2-3.3,1.4-6.2,4.8-6.6c4.4-0.5,9-0.5,13.4,0
		c3.3,0.4,5.1,3.2,4.9,6.6c-0.2,3.6-2.2,5.9-5.8,6.3C199.5,443.9,197.5,443.7,195.6,443.7L195.6,443.7z"/>
	<path class="st0" d="M195.8,68.1c8.2,0,16.5,0,24.7,0c5.2,0,8.4,2.7,8.3,6.7c0,4.1-3.2,6.8-8.4,6.8c-16.5,0.1-33,0.1-49.5,0
		c-5.3,0-8.3-2.6-8.3-6.9c0-4.2,2.9-6.7,8.3-6.7C179.3,68.1,187.5,68.1,195.8,68.1z"/>
</g>
</svg>
