<?xml version="1.0" encoding="utf-8"?>
<!-- Generator: Adobe Illustrator 26.0.1, SVG Export Plug-In . SVG Version: 6.00 Build 0)  -->
<svg version="1.1" id="Layer_1" xmlns="http://www.w3.org/2000/svg" xmlns:xlink="http://www.w3.org/1999/xlink" x="0px" y="0px"
	 viewBox="0 0 512 512" style="enable-background:new 0 0 512 512;" xml:space="preserve">
<style type="text/css">
	.st0{fill:#2A1F80;}
</style>
<g>
	<path class="st0" d="M486.4,333.4c0,5.7,0,11.4,0,17.1c-0.3,1-0.7,2-0.8,3c-6.2,35.4-26.4,58.6-60.8,69.1c-7.1,2.2-14.6,2.7-22.6,4
		c0,4.6,0.1,9.5,0,14.4c-0.6,25.3-18.3,42.8-43.6,42.8c-66.9,0.1-133.8,0.1-200.7,0c-25.3,0-43.2-18.2-43.3-43.5c0-4.8,0-9.5,0-14.3
		c-49.3,3-87.2-37-88.9-79.8c-0.8-20.9,4.9-39.8,18.1-56.1c18.1-22.4,41.9-32.6,70.5-31.7c0-5,0-9.5,0-14.1
		c-4.5-0.4-8.7-0.6-12.9-1.3c-47.6-8.1-77.7-50.8-69.5-98.3c1.9-11.1,6.2-21.3,12.5-30.6c2.3-3.4,6.3-4.3,9.4-2.3c3,2,3.9,5.5,2,9.1
		c-0.5,0.9-1.1,1.8-1.6,2.7c-28.1,45.8,3.7,105.1,57.4,107.1c30.5,1.1,58.7-18.1,68.8-46.8c10.2-29,0.5-61.3-24-79.7
		C133.5,87,103,85.4,78.1,100c-5.4,3.2-9.1,2.9-11.4-0.8c-2.4-3.8-0.8-7.4,4.7-10.7c9.4-5.6,19.4-9.3,30.3-10.8
		c4.2-0.6,8.5-0.9,12.7-1.3c0.2-4.3,0.1-8.2,0.7-12.1c3.4-21.7,20.5-36.1,43.1-36.2c39.7-0.1,79.5,0,119.2,0c28,0,56.1-0.3,84.1,0.2
		c21.8,0.3,39,17.5,40.5,39.3c0.2,3,0.3,5.9,0.5,8.9c1.4,0.1,2.4,0.2,3.5,0.3c37.8,1.6,69.7,27.9,78.3,64.8c0.8,3.3,1.4,6.7,2.1,10
		c0,5.7,0,11.4,0,17.1c-0.3,1-0.7,2-0.8,3c-5.1,34.9-30,62.2-64.5,70.1c-6.1,1.4-12.3,1.9-18.6,2.8c0,4.5,0,8.9,0,13.5
		c1.4,0.1,2.6,0.3,3.7,0.4c37.9,1.8,69.4,28,78,64.9C485.1,326.7,485.7,330.1,486.4,333.4z M331,68.1c-2.9,13.5-8.8,19.1-20.1,19.1
		c-35.1,0.1-70.2,0.1-105.3,0c-10.4,0-17.2-5.9-19-16.1c-0.4-2.2-1-3.1-3.4-3.1c-7,0.1-14.1,0-21.1,0.1c-4.8,0.1-7.2,2.5-7.5,7.2
		c-0.2,2.8-0.4,5.8,0.1,8.5c0.3,1.8,1.3,4,2.8,4.9c53.8,34.5,53.8,108.9-0.1,143.3c-1.4,0.9-2.7,3.2-2.7,4.9
		c-0.3,10,0,20.1-0.2,30.1c-0.1,3.4,1,5.4,3.8,7.4c42.1,30.4,46.5,91,9.6,127.6c-4.4,4.3-11.7,6.2-13,12.8
		c-1.2,6.1-0.3,12.5-0.3,18.8c0,8.7,1.8,10.4,10.6,10.4c62.1,0,124.2,0,186.3,0c1,0,2.1,0,3.1,0c4.9-0.3,7.4-2.7,7.5-7.6
		c0.1-6,0.2-12-0.1-18c-0.1-1.6-1.2-3.7-2.5-4.6c-23.7-15.1-37.5-36.4-40-64.3c-0.8-9.2,1-18.7,2.2-28.1c0.5-4.2,4.2-6,8-5.2
		c3.5,0.8,5.4,3.9,4.8,7.9c-0.1,1-0.4,2.1-0.6,3.1c-10.3,46.7,28.7,89.9,76.4,84.6c28.6-3.1,52.2-23.2,60-50.9
		c7.8-27.7-2.1-57.2-25-74.7c-30.3-23.2-72.2-18.3-97.2,11.4c-3.8,4.5-7.3,5.3-10.7,2.6c-3.3-2.7-3.5-7,0.5-11
		c6.5-6.4,13.3-12.4,20.5-18c2.7-2.1,3.8-3.9,3.8-7.2c-0.2-8.5-0.3-17.1,0-25.6c0.1-3.6-1.2-5.5-4.2-7.4
		c-50.2-31.4-52.4-104.6-3.9-138.3c6.9-4.8,9-9.7,8-17.1c0-0.1,0-0.3,0-0.4c-0.3-4.2-2.6-6.8-6.8-6.9
		C347.3,67.9,339.2,68.1,331,68.1z M402.8,90.1c-38.7-0.1-70.2,31.2-70.4,69.8c-0.2,38.9,31.2,70.7,69.9,70.8
		c38.8,0.1,70.5-31.4,70.6-70.1C473,121.6,441.7,90.2,402.8,90.1z M109.5,271.8c-38.6-0.1-70.2,31.2-70.4,69.8
		c-0.2,38.9,31,70.6,69.8,70.9c39.3,0.3,70.5-30.5,70.7-69.7C179.8,303.5,148.5,271.9,109.5,271.8z M388.6,77.6
		c3-22.4-12.4-36.5-31.4-36.4c-66.1,0.4-132.2,0.1-198.3,0.2c-20.7,0-34.1,16-30.3,36.3c4.1,1,8.2,2,12.6,3c0.2-3.2,0.2-5.7,0.4-8.2
		c0.9-8.6,7.2-16.4,15.8-17.1c10.2-0.9,20.6-0.7,30.9-0.2c5.8,0.3,10,5.2,11.1,10.8c1.4,7.5,2,8,9.7,8c29.1,0,58.2,0,87.2,0
		c4.8,0,9.6,0,14.4,0c3.8,0,6.1-1.8,6.6-5.9c1-8.6,6.1-13.2,14.6-13.4c7.8-0.2,15.6-0.2,23.4,0c12.2,0.4,20.2,8.8,20.4,21.1
		c0,1.6,0,3.2,0,5.1C380.3,79.7,384.5,78.7,388.6,77.6z M141.3,419.6c-4.8,1.5-8.9,2.8-13,4.1c0,7.6-0.7,15.2,0.1,22.5
		c1.6,14.1,14.1,24.2,29.5,24.2c67,0.1,134.1,0,201.1,0c1,0,2.1-0.1,3.1-0.1c12.3-0.9,22.9-9.1,25.4-21.2c1.6-7.9,1.3-16.3,1.8-24.3
		c-5.1-1.3-9.3-2.3-13.8-3.4c0,5.2,0,9.8,0,14.4c-0.1,12.7-8.3,21.4-21.1,21.4c-64,0.1-128.1,0.1-192.1,0
		c-12.9,0-20.9-8.4-21.1-21.3C141.3,430.8,141.3,425.5,141.3,419.6z M128,243c0,5.3,0,10.5,0.1,15.7c0,0.7,0.7,1.7,1.3,2
		c3.7,1.3,7.6,2.4,11.5,3.6c0-8.4,0-16.3,0-24.4C136.6,240.9,132.7,241.9,128,243z M388.9,259.3c0-4.9,0.1-9.4-0.1-13.8
		c0-1-0.7-2.5-1.5-2.8c-3.8-1.1-7.6-1.9-11.6-2.8c0,7.7,0,15,0,22.6C380.2,261.4,384.4,260.4,388.9,259.3z"/>
	<path class="st0" d="M114.2,113.7c8.7,0,17.4-0.1,26.1,0c12.1,0.1,20.4,8.3,20.5,20.3c0.1,17.5,0.1,35.1,0,52.6
		c-0.1,11.6-7.8,20.1-19.5,20.4c-18.1,0.4-36.3,0.4-54.4,0c-11.4-0.3-19.3-8.6-19.5-20.1c-0.3-17.7-0.3-35.4,0-53.1
		c0.2-12.1,8.6-20,20.7-20.2C96.8,113.6,105.5,113.7,114.2,113.7z M147.5,160.2c0-8.2,0.1-16.5,0-24.7c-0.1-6.3-2.1-8.4-8.4-8.4
		c-16.6,0-33.3,0-49.9,0c-6.2,0-8.5,2.3-8.5,8.3c-0.1,16.6,0,33.3,0,49.9c0,6.1,2.4,8.5,8.4,8.5c16.6,0.1,33.3,0,49.9,0
		c6.1,0,8.4-2.3,8.4-8.4C147.5,177,147.5,168.6,147.5,160.2z"/>
	<path class="st0" d="M258.5,316.4c-12.7,0-24.1-3.7-34.7-10.7c-1.5-1-4.1-1.3-6-0.8c-3.6,0.8-7.1,2.4-10.6,3.6
		c-4.1,1.4-7.7,0.7-10.8-2.3c-3.1-3-3.8-6.8-2.4-10.8c1.9-5.7,4.1-11.2,5.9-17c0.6-1.9,0.7-4.1,0.2-6c-8.9-34,11-67.3,45.2-75.5
		c32.2-7.7,64.9,13.4,72.3,46.6C325.8,280.4,296.4,316.6,258.5,316.4z M208.9,293.6c1.7-0.5,2.7-0.6,3.6-1c7.3-3.6,13.5-2.2,20,2.6
		c8.6,6.3,18.7,8.4,29.4,7.8c25.9-1.5,46.6-26.3,43.5-52c-3.4-27.5-28.9-46.5-55.2-41.3c-27.9,5.5-44.5,32.3-36.8,59.7
		c1.2,4.4,1.3,8.5-0.4,12.7C211.5,285.6,210.4,289.2,208.9,293.6z"/>
	<path class="st0" d="M377.2,342.7c0-8.5-0.1-17.1,0-25.6c0.1-8.8,7.2-13,14.8-8.6c15.1,8.6,30.1,17.3,45.1,26.1
		c7.3,4.3,7.3,12.6,0,16.9c-15,8.8-30,17.5-45.1,26c-7.6,4.3-14.6,0.2-14.7-8.7C377.1,360,377.2,351.4,377.2,342.7z M425,342.9
		c-11.8-6.8-22.8-13.1-34.2-19.7c0,13.5,0,26.2,0,39.4C402.4,356,413.3,349.7,425,342.9z"/>
	<path class="st0" d="M403.5,151.6c4,0,7.3-0.1,10.5,0c4,0.2,6.6,2.7,6.7,6.4c0.1,3.7-2.3,6.5-6.3,6.8c-3.4,0.3-6.9,0.1-11,0.1
		c0,1.9,0,3.5,0,5c0,11.8,0,23.7,0,35.5c0,5.4-2.3,8.4-6.5,8.4c-4.4,0.1-6.8-2.9-6.9-8.6c0-11.8,0-23.7,0-35.5c0-1.5,0-2.9,0-4.9
		c-3.5,0-6.6,0.1-9.7,0c-4.9-0.2-7.7-2.8-7.6-7c0.1-4,2.8-6.3,7.6-6.4c1.5,0,3,0,4.5,0c1.5,0,3,0,5.1,0c0-5.7,0-11.1,0-16.6
		c0-15.1,7.9-22.9,23-23c4,0,8.1-0.1,12.1,0c4.6,0.1,7.4,2.7,7.4,6.7c0,4-2.8,6.6-7.4,6.7c-4.6,0.1-9.3,0-13.9,0
		c-5.3,0.1-7.6,2.4-7.7,7.7C403.5,139.1,403.5,145.1,403.5,151.6z"/>
	<path class="st0" d="M97.3,320.3c0.3-0.8,0.5-1.6,0.8-2.5c5.3-16.9,22.5-22.8,37.4-13.1c1.8,1.2,5.2,1.1,7.4,0.3
		c4.7-1.7,8.8-1.7,12.5,1.8c3.8,3.4,4.2,7.8,2.6,12.4c-1.1,3.2-1.8,6.8-3.7,9.6c-4,5.9-6.1,12.4-8.6,19c-8.5,22.6-25.9,33.5-49.2,36
		c-8.1,0.8-16.2,0.6-23.9-2.5c-4.7-1.9-8.1-5-9.1-10.3c-1-5.4,1.3-8.9,6.6-10.5c1.3-0.4,2.5-0.8,4.3-1.3
		c-7.8-6.8-13.2-14.7-13.9-24.7c-0.5-6.9,0.1-14.1,1.4-20.9c1.5-7.8,9.8-9.7,15.6-4.1C85,316.8,89.3,319.2,97.3,320.3z M72.8,323.8
		c0.5,4.5,0.5,7.8,1.2,10.9c2.1,9.2,8.6,14.7,16.7,18.8c6.1,3,6.3,8.9,0.6,12.6c-2,1.3-4.1,2.5-6.7,4c19.5,2,44.9-5,51-35
		c0.6-2.8,2.4-5.3,3.9-7.9c1.4-2.6,3.1-5.1,5.2-8.5c-7.6,1.4-13.6,1.2-18.4-3.8c-0.9-0.9-2.7-1.3-4.2-1.4
		c-6.8-0.7-11.2,3.8-11.5,11.7c-0.3,7.4-2.2,9.2-9.6,9C91,334.1,82.1,330.5,72.8,323.8z"/>
	<path class="st0" d="M258.5,64.3c-3.5,0.1-6.7-2.9-6.8-6.4c-0.2-3.7,3.1-7,6.8-6.9c3.5,0.1,6.5,3.1,6.5,6.7
		C265,61.2,262.1,64.2,258.5,64.3z"/>
	<path class="st0" d="M114,140.3c11-0.1,20.1,8.9,20.2,19.9c0.1,10.9-9,20.1-19.9,20.1c-11,0.1-20.1-9-20.2-19.9
		C94,149.5,102.9,140.4,114,140.3z M114.3,166.9c3.6-0.1,6.5-3.1,6.5-6.7c0-3.5-3.2-6.6-6.6-6.6c-3.7,0-6.8,3.2-6.6,7
		C107.7,164.2,110.7,167,114.3,166.9z"/>
	<path class="st0" d="M262.9,275.3c-8.4-2.4-17.7-6.7-23.9-15.5c-4.7-6.7-3.5-18.2,1.7-24.6c2.1-2.6,4.9-3.4,8-2
		c3.3,1.5,4.4,4.4,3.6,7.9c-0.3,1.3-1.1,2.4-1.6,3.7c-2.3,5.7-1.4,8.5,3.8,11.7c1.8,1.1,3.6,2.2,5.4,3.3c5.8,3.5,8.7,3,13-2.4
		c0.6-0.7,1-1.5,1.6-2.1c2.5-2.6,5.5-3,8.6-1.1c3.1,2,3.6,5.1,2.3,8.3C282.5,269.5,272.4,275.7,262.9,275.3z"/>
</g>
</svg>
