<?xml version="1.0" encoding="utf-8"?>
<!-- Generator: Adobe Illustrator 26.0.1, SVG Export Plug-In . SVG Version: 6.00 Build 0)  -->
<svg version="1.1" id="Layer_1" xmlns="http://www.w3.org/2000/svg" xmlns:xlink="http://www.w3.org/1999/xlink" x="0px" y="0px"
	 viewBox="0 0 512 512" style="enable-background:new 0 0 512 512;" xml:space="preserve">
<style type="text/css">
	.st0{fill:#0083CA;}
</style>
<g>
	<path class="st0" d="M91.2,468.3c-22.9,0.2-39.7-13.7-47.3-39.3c-7.2,0-14.6,0-21.9,0c-7.1,0-9.9-2.7-9.9-9.7
		c0-98.4,0-196.7,0-295.1c0-7.3,2.8-9.9,10.2-10c19.3,0,38.7,0,58,0c1.8,0,3.5,0,5,0c15.1-43.6,44.3-69.8,90.7-70.4
		c47.8-0.6,77.9,25.7,93.5,70.4c20.7,0,41.7,0,62.7,0c8,0,10.5,2.5,10.5,10.6c0,26.1,0,52.1,0,78.2c0,1.7,0,3.5,0,5.6
		c2.3,0,4.1,0,5.9,0c25.9,0,51.8,0.1,77.7-0.1c4.9,0,8.3,1.5,11.1,5.7c20,30.2,40.1,60.3,60.1,90.5c1.6,2.4,2.6,5.7,2.6,8.6
		c0.2,35.1,0.1,70.2,0.1,105.2c0,7.7-2.6,10.3-10.3,10.4c-9.8,0-19.6,0-29.3,0c-8.3,25.5-23.9,38.9-45.8,39.3
		c-10.1,0.2-19.4-2.5-27.8-8.3c-10.9-7.5-17.3-18-20-30.9c-76.5,0-152.7,0-229.3,0C130.6,453.7,113.5,468.1,91.2,468.3z
		 M326.6,130.1c-18.3,0-36.4,0-54.5,0c-0.3,38-20.6,67.8-40.4,97.4c-14.4,21.6-30.9,41.9-46.7,62.6c-5.2,6.9-10,6.8-15.5,0
		c-26.7-32.7-52-66.3-71.4-103.9c-6.8-13.1-12.7-26.6-14.6-41.5c-0.6-4.7-0.6-9.5-0.8-14.6c-17.9,0-36,0-54.5,0
		c0,67.7,0,135.6,0,203.9c99.3,0,198.7,0,298.5,0C326.6,266,326.6,198.2,326.6,130.1z M213.3,226.9c13.8-19.6,25.7-40.2,36-61.9
		c20.7-43.5-10-96.3-58.2-104.8c-47.9-8.5-92.6,28.8-92.5,77.1c0,11.9,4.4,22.7,9.4,33.3c13.7,29.4,32.2,55.8,51.6,81.6
		c5.6,7.5,11.4,14.8,18,23.2C189.9,258.8,201.9,243.1,213.3,226.9z M44.1,413c2.9-13.7,9.9-24.7,21.9-32.2
		c8.6-5.3,18.1-7.7,28.1-6.9c17.4,1.3,37.4,12.7,43.3,39c62.8,0,125.7,0,189,0c0-20.6,0-41.3,0-62.4c-99.2,0-198.6,0-298.3,0
		c0,20.6,0,41.3,0,62.5C33.5,413,38.6,413,44.1,413z M418,224.1c-24.9,0.4-49.8,0.2-75.1,0.2c0,62.9,0,125.6,0,188.5
		c7.9,0,15.8,0,23.7,0c7.7-25.6,24.6-39.3,47.7-39c18.7,0.3,40,12.6,45.7,39.1c7.8,0,15.6,0,23.8,0c0-10.1,0-20.4,0-31.2
		c-4.4,0-9,0-13.5,0c-14.7-0.1-25.4-9.9-25.5-23.5c-0.1-13.7,10.6-23.7,25.2-23.7c4.5,0,9.1,0,13.9,0c0-5.3,0-10.2,0-15.7
		c-1.7,0-3.5,0-5.2,0c-36.4,0-72.8,0-109.1,0c-9,0-11.3-2.3-11.3-11.3c0-21.6,0-43.3,0-64.9c0-7.7,2.6-10.4,10.3-10.4
		c20.1,0,40.3,0,60.8,0C427.4,226,424.1,224,418,224.1z M449.8,261.1c-6-10.6-13.2-14.5-25.3-13.5c-15,1.2-30.1,0.3-45.2,0.3
		c-1.6,0-3.2,0-4.9,0c-0.1,1.1-0.3,1.7-0.3,2.3c0,17.4,0,34.7,0,52.4c34.2,0,68.2,0,103.1,0C467.7,288.5,457.8,275.3,449.8,261.1z
		 M413.2,452.5c17.4,0.1,31.6-14,31.6-31.4c0-17.2-13.9-31.4-31-31.5c-17.5-0.2-31.8,13.8-31.9,31.2
		C381.8,438.1,395.9,452.4,413.2,452.5z M90.9,452.5c17.3,0,31.4-14.4,31.3-31.8c-0.1-17.2-14.2-31.2-31.4-31.2
		c-17.4,0-31.6,14.2-31.5,31.5C59.3,438.5,73.5,452.6,90.9,452.5z M468.4,350.3c-4.6,0.2-7.8,3.5-7.8,7.8c0,4.3,3.2,7.6,7.8,7.8
		c5,0.2,10.1,0,15.4,0c0-5.2,0-10.2,0-15.7C478.5,350.2,473.4,350.1,468.4,350.3z"/>
	<path class="st0" d="M208.8,121.8c0,17.4-14.1,31.6-31.4,31.6c-17.1,0-31.3-14-31.5-31.1c-0.2-17.4,13.9-31.8,31.2-31.9
		C194.5,90.4,208.7,104.5,208.8,121.8z M193,122.2c0.1-8.5-6.9-15.8-15.4-15.9c-8.8-0.1-16.1,7-16,15.8c0,8.6,7.1,15.6,15.6,15.7
		C185.8,137.7,192.9,130.8,193,122.2z"/>
	<path class="st0" d="M378,326.6c-3.9,0-7.9-0.2-11.8,0c-4.7,0.2-7.8,3.5-7.8,7.8c0,4.3,3.2,7.7,7.8,7.8c7.9,0.2,15.7,0.2,23.6,0
		c4.7-0.1,7.8-3.5,7.8-7.8c0-4.3-3.2-7.5-7.8-7.8c-0.3,0-0.7,0-1,0C385.2,326.6,381.6,326.6,378,326.6
		C378,326.6,378,326.6,378,326.6z"/>
	<path class="st0" d="M389.8,420.8c0.1-12.8,10.8-23.4,23.6-23.3c12.9,0.1,23.5,10.5,23.6,23.3c0.1,13.1-10.5,23.8-23.6,23.8
		C400.3,444.6,389.7,433.9,389.8,420.8z M405.6,421.1c0,4.4,3.9,8,8.3,7.8c4.2-0.2,7.6-3.9,7.4-8.1c-0.2-4.2-3.8-7.6-8-7.5
		C409,413.3,405.5,416.9,405.6,421.1z"/>
	<path class="st0" d="M114.3,421c0,12.8-10.4,23.5-23.3,23.6c-13.1,0.2-23.8-10.4-23.9-23.5c-0.1-12.8,10.5-23.5,23.3-23.6
		C103.5,397.4,114.3,407.9,114.3,421z M90.7,428.9c4.4,0,8.1-3.8,7.9-8.2c-0.2-4.2-3.8-7.6-8-7.5c-4.2,0.1-7.7,3.7-7.6,7.9
		C83,425.4,86.5,428.8,90.7,428.9z"/>
</g>
</svg>
